<svg xmlns="http://www.w3.org/2000/svg" xmlns:xlink="http://www.w3.org/1999/xlink" width="463" height="300" viewBox="0 0 463 300">
  <defs>
    <clipPath id="clip-path">
      <rect width="91.395" height="137.05" fill="none"/>
    </clipPath>
    <clipPath id="clip-path-2">
      <rect width="124.257" height="186.326" fill="none"/>
    </clipPath>
    <filter id="Rectangle_22" x="109" y="48" width="354" height="198" filterUnits="userSpaceOnUse">
      <feOffset dy="20" input="SourceAlpha"/>
      <feGaussianBlur stdDeviation="25" result="blur"/>
      <feFlood flood-opacity="0.161"/>
      <feComposite operator="in" in2="blur"/>
      <feComposite in="SourceGraphic"/>
    </filter>
  </defs>
  <g id="cards-only" transform="translate(-219 -949)">
    <g id="Component_1_1" data-name="Component 1 – 1" transform="translate(219 949)">
      <g id="Pricing_Card_Illustration" data-name="Pricing Card Illustration" transform="translate(-219 -949)">
        <rect id="Rectangle_18" data-name="Rectangle 18" width="128" height="221" rx="27" transform="translate(219 1002)" fill="#ff014e"/>
        <rect id="Rectangle_19" data-name="Rectangle 19" width="70" height="32" rx="16" transform="translate(248 1178)" fill="#fff" opacity="0.2"/>
        <g id="Repeat_Grid_2" data-name="Repeat Grid 2" transform="translate(237.244 1027.254)" clip-path="url(#clip-path)">
          <g id="Group_5" data-name="Group 5" transform="translate(-354.454 -953.663)">
            <rect id="Rectangle_13" data-name="Rectangle 13" width="78" height="8" rx="4" transform="translate(383 963)" fill="#fff" opacity="0.2"/>
            <g id="user" transform="translate(352.454 951.663)" opacity="0.5">
              <path id="Path_4" data-name="Path 4" d="M21.883,18.984v.911a2.016,2.016,0,0,1-1.988,1.988H3.988A2.016,2.016,0,0,1,2,19.895v-.911c0-2.4,2.817-3.894,5.468-5.054l.249-.124a.664.664,0,0,1,.621.041A6.428,6.428,0,0,0,11.9,14.924a6.668,6.668,0,0,0,3.562-1.077.664.664,0,0,1,.621-.041l.249.124C19.066,15.09,21.883,16.54,21.883,18.984ZM11.942,2a5.209,5.209,0,0,1,4.929,5.468,5.209,5.209,0,0,1-4.929,5.468A5.209,5.209,0,0,1,7.012,7.468,5.209,5.209,0,0,1,11.942,2Z" fill="#fff"/>
            </g>
          </g>
          <g id="Group_5-2" data-name="Group 5" transform="translate(-354.454 -913.663)">
            <rect id="Rectangle_13-2" data-name="Rectangle 13" width="78" height="8" rx="4" transform="translate(383 963)" fill="#fff" opacity="0.2"/>
            <g id="user-2" data-name="user" transform="translate(352.454 951.663)" opacity="0.5">
              <path id="Path_4-2" data-name="Path 4" d="M21.883,18.984v.911a2.016,2.016,0,0,1-1.988,1.988H3.988A2.016,2.016,0,0,1,2,19.895v-.911c0-2.4,2.817-3.894,5.468-5.054l.249-.124a.664.664,0,0,1,.621.041A6.428,6.428,0,0,0,11.9,14.924a6.668,6.668,0,0,0,3.562-1.077.664.664,0,0,1,.621-.041l.249.124C19.066,15.09,21.883,16.54,21.883,18.984ZM11.942,2a5.209,5.209,0,0,1,4.929,5.468,5.209,5.209,0,0,1-4.929,5.468A5.209,5.209,0,0,1,7.012,7.468,5.209,5.209,0,0,1,11.942,2Z" fill="#fff"/>
            </g>
          </g>
          <g id="Group_5-3" data-name="Group 5" transform="translate(-354.454 -873.663)">
            <rect id="Rectangle_13-3" data-name="Rectangle 13" width="78" height="8" rx="4" transform="translate(383 963)" fill="#fff" opacity="0.2"/>
            <g id="user-3" data-name="user" transform="translate(352.454 951.663)" opacity="0.5">
              <path id="Path_4-3" data-name="Path 4" d="M21.883,18.984v.911a2.016,2.016,0,0,1-1.988,1.988H3.988A2.016,2.016,0,0,1,2,19.895v-.911c0-2.4,2.817-3.894,5.468-5.054l.249-.124a.664.664,0,0,1,.621.041A6.428,6.428,0,0,0,11.9,14.924a6.668,6.668,0,0,0,3.562-1.077.664.664,0,0,1,.621-.041l.249.124C19.066,15.09,21.883,16.54,21.883,18.984ZM11.942,2a5.209,5.209,0,0,1,4.929,5.468,5.209,5.209,0,0,1-4.929,5.468A5.209,5.209,0,0,1,7.012,7.468,5.209,5.209,0,0,1,11.942,2Z" fill="#fff"/>
            </g>
          </g>
          <g id="Group_5-4" data-name="Group 5" transform="translate(-354.454 -833.663)">
            <rect id="Rectangle_13-4" data-name="Rectangle 13" width="78" height="8" rx="4" transform="translate(383 963)" fill="#fff" opacity="0.2"/>
            <g id="user-4" data-name="user" transform="translate(352.454 951.663)" opacity="0.5">
              <path id="Path_4-4" data-name="Path 4" d="M21.883,18.984v.911a2.016,2.016,0,0,1-1.988,1.988H3.988A2.016,2.016,0,0,1,2,19.895v-.911c0-2.4,2.817-3.894,5.468-5.054l.249-.124a.664.664,0,0,1,.621.041A6.428,6.428,0,0,0,11.9,14.924a6.668,6.668,0,0,0,3.562-1.077.664.664,0,0,1,.621-.041l.249.124C19.066,15.09,21.883,16.54,21.883,18.984ZM11.942,2a5.209,5.209,0,0,1,4.929,5.468,5.209,5.209,0,0,1-4.929,5.468A5.209,5.209,0,0,1,7.012,7.468,5.209,5.209,0,0,1,11.942,2Z" fill="#fff"/>
            </g>
          </g>
        </g>
      </g>
      <g id="Pricing_Card_" data-name="Pricing Card " transform="translate(-219 -949)">
        <rect id="Rectangle_8" data-name="Rectangle 8" width="174" height="300" rx="27" transform="translate(386 949)" fill="#474dff"/>
        <rect id="Rectangle_17" data-name="Rectangle 17" width="96" height="44" rx="22" transform="translate(425 1188)" fill="#fff" opacity="0.2"/>
        <g id="Repeat_Grid_1" data-name="Repeat Grid 1" transform="translate(410.803 983.334)" clip-path="url(#clip-path-2)">
          <g id="Group_5-5" data-name="Group 5" transform="translate(-354.454 -953.663)">
            <rect id="Rectangle_13-5" data-name="Rectangle 13" width="78" height="8" rx="4" transform="translate(383 963)" fill="#fff" opacity="0.2"/>
            <g id="user-5" data-name="user" transform="translate(352.454 951.663)" opacity="0.5">
              <path id="Path_4-5" data-name="Path 4" d="M21.883,18.984v.911a2.016,2.016,0,0,1-1.988,1.988H3.988A2.016,2.016,0,0,1,2,19.895v-.911c0-2.4,2.817-3.894,5.468-5.054l.249-.124a.664.664,0,0,1,.621.041A6.428,6.428,0,0,0,11.9,14.924a6.668,6.668,0,0,0,3.562-1.077.664.664,0,0,1,.621-.041l.249.124C19.066,15.09,21.883,16.54,21.883,18.984ZM11.942,2a5.209,5.209,0,0,1,4.929,5.468,5.209,5.209,0,0,1-4.929,5.468A5.209,5.209,0,0,1,7.012,7.468,5.209,5.209,0,0,1,11.942,2Z" fill="#fff"/>
            </g>
          </g>
          <g id="Group_5-6" data-name="Group 5" transform="translate(-354.454 -913.663)">
            <rect id="Rectangle_13-6" data-name="Rectangle 13" width="78" height="8" rx="4" transform="translate(383 963)" fill="#fff" opacity="0.2"/>
            <g id="user-6" data-name="user" transform="translate(352.454 951.663)" opacity="0.5">
              <path id="Path_4-6" data-name="Path 4" d="M21.883,18.984v.911a2.016,2.016,0,0,1-1.988,1.988H3.988A2.016,2.016,0,0,1,2,19.895v-.911c0-2.4,2.817-3.894,5.468-5.054l.249-.124a.664.664,0,0,1,.621.041A6.428,6.428,0,0,0,11.9,14.924a6.668,6.668,0,0,0,3.562-1.077.664.664,0,0,1,.621-.041l.249.124C19.066,15.09,21.883,16.54,21.883,18.984ZM11.942,2a5.209,5.209,0,0,1,4.929,5.468,5.209,5.209,0,0,1-4.929,5.468A5.209,5.209,0,0,1,7.012,7.468,5.209,5.209,0,0,1,11.942,2Z" fill="#fff"/>
            </g>
          </g>
          <g id="Group_5-7" data-name="Group 5" transform="translate(-354.454 -873.663)">
            <rect id="Rectangle_13-7" data-name="Rectangle 13" width="78" height="8" rx="4" transform="translate(383 963)" fill="#fff" opacity="0.2"/>
            <g id="user-7" data-name="user" transform="translate(352.454 951.663)" opacity="0.5">
              <path id="Path_4-7" data-name="Path 4" d="M21.883,18.984v.911a2.016,2.016,0,0,1-1.988,1.988H3.988A2.016,2.016,0,0,1,2,19.895v-.911c0-2.4,2.817-3.894,5.468-5.054l.249-.124a.664.664,0,0,1,.621.041A6.428,6.428,0,0,0,11.9,14.924a6.668,6.668,0,0,0,3.562-1.077.664.664,0,0,1,.621-.041l.249.124C19.066,15.09,21.883,16.54,21.883,18.984ZM11.942,2a5.209,5.209,0,0,1,4.929,5.468,5.209,5.209,0,0,1-4.929,5.468A5.209,5.209,0,0,1,7.012,7.468,5.209,5.209,0,0,1,11.942,2Z" fill="#fff"/>
            </g>
          </g>
          <g id="Group_5-8" data-name="Group 5" transform="translate(-354.454 -833.663)">
            <rect id="Rectangle_13-8" data-name="Rectangle 13" width="78" height="8" rx="4" transform="translate(383 963)" fill="#fff" opacity="0.2"/>
            <g id="user-8" data-name="user" transform="translate(352.454 951.663)" opacity="0.5">
              <path id="Path_4-8" data-name="Path 4" d="M21.883,18.984v.911a2.016,2.016,0,0,1-1.988,1.988H3.988A2.016,2.016,0,0,1,2,19.895v-.911c0-2.4,2.817-3.894,5.468-5.054l.249-.124a.664.664,0,0,1,.621.041A6.428,6.428,0,0,0,11.9,14.924a6.668,6.668,0,0,0,3.562-1.077.664.664,0,0,1,.621-.041l.249.124C19.066,15.09,21.883,16.54,21.883,18.984ZM11.942,2a5.209,5.209,0,0,1,4.929,5.468,5.209,5.209,0,0,1-4.929,5.468A5.209,5.209,0,0,1,7.012,7.468,5.209,5.209,0,0,1,11.942,2Z" fill="#fff"/>
            </g>
          </g>
          <g id="Group_5-9" data-name="Group 5" transform="translate(-354.454 -793.663)">
            <rect id="Rectangle_13-9" data-name="Rectangle 13" width="78" height="8" rx="4" transform="translate(383 963)" fill="#fff" opacity="0.2"/>
            <g id="user-9" data-name="user" transform="translate(352.454 951.663)" opacity="0.5">
              <path id="Path_4-9" data-name="Path 4" d="M21.883,18.984v.911a2.016,2.016,0,0,1-1.988,1.988H3.988A2.016,2.016,0,0,1,2,19.895v-.911c0-2.4,2.817-3.894,5.468-5.054l.249-.124a.664.664,0,0,1,.621.041A6.428,6.428,0,0,0,11.9,14.924a6.668,6.668,0,0,0,3.562-1.077.664.664,0,0,1,.621-.041l.249.124C19.066,15.09,21.883,16.54,21.883,18.984ZM11.942,2a5.209,5.209,0,0,1,4.929,5.468,5.209,5.209,0,0,1-4.929,5.468A5.209,5.209,0,0,1,7.012,7.468,5.209,5.209,0,0,1,11.942,2Z" fill="#fff"/>
            </g>
          </g>
        </g>
        <g transform="matrix(1, 0, 0, 1, 219, 949)" filter="url(#Rectangle_22)">
          <rect id="Rectangle_22-2" data-name="Rectangle 22" width="204" height="48" rx="10" transform="translate(184 103)" fill="#fff"/>
        </g>
        <g id="user-10" data-name="user" transform="translate(416.909 1066)">
          <path id="Path_4-10" data-name="Path 4" d="M21.883,18.984v.911a2.016,2.016,0,0,1-1.988,1.988H3.988A2.016,2.016,0,0,1,2,19.895v-.911c0-2.4,2.817-3.894,5.468-5.054l.249-.124a.664.664,0,0,1,.621.041A6.428,6.428,0,0,0,11.9,14.924a6.668,6.668,0,0,0,3.562-1.077.664.664,0,0,1,.621-.041l.249.124C19.066,15.09,21.883,16.54,21.883,18.984ZM11.942,2a5.209,5.209,0,0,1,4.929,5.468,5.209,5.209,0,0,1-4.929,5.468A5.209,5.209,0,0,1,7.012,7.468,5.209,5.209,0,0,1,11.942,2Z" transform="translate(-2 -2)" fill="#ffc432"/>
        </g>
        <rect id="Rectangle_23" data-name="Rectangle 23" width="112" height="8" rx="4" transform="translate(449.553 1072)" fill="#ffc432"/>
        <g id="hm_icons_star" transform="translate(573.973 1069)">
          <path id="Path_12" data-name="Path 12" d="M.36,5.819a.831.831,0,0,1,.717-.6l4-.3L6.573,1.278A.72.72,0,0,1,7.29.8a.823.823,0,0,1,.777.538L9.561,4.982l4,.3a.662.662,0,0,1,.717.538.831.831,0,0,1-.239.9L10.994,9.284l.956,3.824a.858.858,0,0,1-.3.9.8.8,0,0,1-.956.06L7.29,11.972,3.885,14.064A.811.811,0,0,1,2.929,14a.766.766,0,0,1-.3-.9l.956-3.824L.539,6.715A.812.812,0,0,1,.36,5.819Z" transform="translate(-0.3 -0.8)" fill="#ffc432"/>
        </g>
      </g>
    </g>
  </g>
</svg>
