<svg xmlns="http://www.w3.org/2000/svg" xmlns:xlink="http://www.w3.org/1999/xlink" width="463" height="498" viewBox="0 0 463 498">
  <defs>
    <clipPath id="clip-path">
      <rect width="188" height="498" fill="none"/>
    </clipPath>
    <clipPath id="clip-path-2">
      <rect width="91.395" height="137.05" fill="none"/>
    </clipPath>
    <clipPath id="clip-path-3">
      <rect width="124.257" height="186.326" fill="none"/>
    </clipPath>
    <filter id="Rectangle_22" x="109" y="170" width="354" height="198" filterUnits="userSpaceOnUse">
      <feOffset dy="20" input="SourceAlpha"/>
      <feGaussianBlur stdDeviation="25" result="blur"/>
      <feFlood flood-opacity="0.161"/>
      <feComposite operator="in" in2="blur"/>
      <feComposite in="SourceGraphic"/>
    </filter>
  </defs>
  <g id="cards_with_pattern" data-name="cards with pattern" transform="translate(-219 -827)">
    <g id="Pattern" transform="translate(292 827)" clip-path="url(#clip-path)">
      <g transform="translate(-147 -2619)">
        <circle id="Ellipse_42" data-name="Ellipse 42" cx="4.5" cy="4.5" r="4.5" transform="translate(147 2619)" fill="#eff0fe"/>
      </g>
      <g transform="translate(-118 -2619)">
        <circle id="Ellipse_42-2" data-name="Ellipse 42" cx="4.5" cy="4.5" r="4.5" transform="translate(147 2619)" fill="#eff0fe"/>
      </g>
      <g transform="translate(-89 -2619)">
        <circle id="Ellipse_42-3" data-name="Ellipse 42" cx="4.5" cy="4.5" r="4.5" transform="translate(147 2619)" fill="#eff0fe"/>
      </g>
      <g transform="translate(-60 -2619)">
        <circle id="Ellipse_42-4" data-name="Ellipse 42" cx="4.5" cy="4.5" r="4.5" transform="translate(147 2619)" fill="#eff0fe"/>
      </g>
      <g transform="translate(-31 -2619)">
        <circle id="Ellipse_42-5" data-name="Ellipse 42" cx="4.5" cy="4.5" r="4.5" transform="translate(147 2619)" fill="#eff0fe"/>
      </g>
      <g transform="translate(-2 -2619)">
        <circle id="Ellipse_42-6" data-name="Ellipse 42" cx="4.5" cy="4.5" r="4.5" transform="translate(147 2619)" fill="#eff0fe"/>
      </g>
      <g transform="translate(27 -2619)">
        <circle id="Ellipse_42-7" data-name="Ellipse 42" cx="4.5" cy="4.5" r="4.5" transform="translate(147 2619)" fill="#eff0fe"/>
      </g>
      <g transform="translate(-147 -2590)">
        <circle id="Ellipse_42-8" data-name="Ellipse 42" cx="4.5" cy="4.5" r="4.5" transform="translate(147 2619)" fill="#eff0fe"/>
      </g>
      <g transform="translate(-118 -2590)">
        <circle id="Ellipse_42-9" data-name="Ellipse 42" cx="4.5" cy="4.5" r="4.5" transform="translate(147 2619)" fill="#eff0fe"/>
      </g>
      <g transform="translate(-89 -2590)">
        <circle id="Ellipse_42-10" data-name="Ellipse 42" cx="4.5" cy="4.5" r="4.5" transform="translate(147 2619)" fill="#eff0fe"/>
      </g>
      <g transform="translate(-60 -2590)">
        <circle id="Ellipse_42-11" data-name="Ellipse 42" cx="4.5" cy="4.5" r="4.5" transform="translate(147 2619)" fill="#eff0fe"/>
      </g>
      <g transform="translate(-31 -2590)">
        <circle id="Ellipse_42-12" data-name="Ellipse 42" cx="4.5" cy="4.5" r="4.5" transform="translate(147 2619)" fill="#eff0fe"/>
      </g>
      <g transform="translate(-2 -2590)">
        <circle id="Ellipse_42-13" data-name="Ellipse 42" cx="4.5" cy="4.5" r="4.5" transform="translate(147 2619)" fill="#eff0fe"/>
      </g>
      <g transform="translate(27 -2590)">
        <circle id="Ellipse_42-14" data-name="Ellipse 42" cx="4.5" cy="4.5" r="4.5" transform="translate(147 2619)" fill="#eff0fe"/>
      </g>
      <g transform="translate(-147 -2561)">
        <circle id="Ellipse_42-15" data-name="Ellipse 42" cx="4.5" cy="4.5" r="4.5" transform="translate(147 2619)" fill="#eff0fe"/>
      </g>
      <g transform="translate(-118 -2561)">
        <circle id="Ellipse_42-16" data-name="Ellipse 42" cx="4.5" cy="4.5" r="4.5" transform="translate(147 2619)" fill="#eff0fe"/>
      </g>
      <g transform="translate(-89 -2561)">
        <circle id="Ellipse_42-17" data-name="Ellipse 42" cx="4.5" cy="4.5" r="4.5" transform="translate(147 2619)" fill="#eff0fe"/>
      </g>
      <g transform="translate(-60 -2561)">
        <circle id="Ellipse_42-18" data-name="Ellipse 42" cx="4.5" cy="4.5" r="4.5" transform="translate(147 2619)" fill="#eff0fe"/>
      </g>
      <g transform="translate(-31 -2561)">
        <circle id="Ellipse_42-19" data-name="Ellipse 42" cx="4.5" cy="4.5" r="4.5" transform="translate(147 2619)" fill="#eff0fe"/>
      </g>
      <g transform="translate(-2 -2561)">
        <circle id="Ellipse_42-20" data-name="Ellipse 42" cx="4.5" cy="4.5" r="4.5" transform="translate(147 2619)" fill="#eff0fe"/>
      </g>
      <g transform="translate(27 -2561)">
        <circle id="Ellipse_42-21" data-name="Ellipse 42" cx="4.5" cy="4.5" r="4.5" transform="translate(147 2619)" fill="#eff0fe"/>
      </g>
      <g transform="translate(-147 -2532)">
        <circle id="Ellipse_42-22" data-name="Ellipse 42" cx="4.5" cy="4.5" r="4.5" transform="translate(147 2619)" fill="#eff0fe"/>
      </g>
      <g transform="translate(-118 -2532)">
        <circle id="Ellipse_42-23" data-name="Ellipse 42" cx="4.5" cy="4.5" r="4.5" transform="translate(147 2619)" fill="#eff0fe"/>
      </g>
      <g transform="translate(-89 -2532)">
        <circle id="Ellipse_42-24" data-name="Ellipse 42" cx="4.5" cy="4.5" r="4.5" transform="translate(147 2619)" fill="#eff0fe"/>
      </g>
      <g transform="translate(-60 -2532)">
        <circle id="Ellipse_42-25" data-name="Ellipse 42" cx="4.5" cy="4.5" r="4.5" transform="translate(147 2619)" fill="#eff0fe"/>
      </g>
      <g transform="translate(-31 -2532)">
        <circle id="Ellipse_42-26" data-name="Ellipse 42" cx="4.5" cy="4.5" r="4.5" transform="translate(147 2619)" fill="#eff0fe"/>
      </g>
      <g transform="translate(-2 -2532)">
        <circle id="Ellipse_42-27" data-name="Ellipse 42" cx="4.5" cy="4.5" r="4.5" transform="translate(147 2619)" fill="#eff0fe"/>
      </g>
      <g transform="translate(27 -2532)">
        <circle id="Ellipse_42-28" data-name="Ellipse 42" cx="4.5" cy="4.5" r="4.5" transform="translate(147 2619)" fill="#eff0fe"/>
      </g>
      <g transform="translate(-147 -2503)">
        <circle id="Ellipse_42-29" data-name="Ellipse 42" cx="4.5" cy="4.5" r="4.5" transform="translate(147 2619)" fill="#eff0fe"/>
      </g>
      <g transform="translate(-118 -2503)">
        <circle id="Ellipse_42-30" data-name="Ellipse 42" cx="4.5" cy="4.5" r="4.5" transform="translate(147 2619)" fill="#eff0fe"/>
      </g>
      <g transform="translate(-89 -2503)">
        <circle id="Ellipse_42-31" data-name="Ellipse 42" cx="4.5" cy="4.5" r="4.5" transform="translate(147 2619)" fill="#eff0fe"/>
      </g>
      <g transform="translate(-60 -2503)">
        <circle id="Ellipse_42-32" data-name="Ellipse 42" cx="4.5" cy="4.5" r="4.5" transform="translate(147 2619)" fill="#eff0fe"/>
      </g>
      <g transform="translate(-31 -2503)">
        <circle id="Ellipse_42-33" data-name="Ellipse 42" cx="4.5" cy="4.5" r="4.5" transform="translate(147 2619)" fill="#eff0fe"/>
      </g>
      <g transform="translate(-2 -2503)">
        <circle id="Ellipse_42-34" data-name="Ellipse 42" cx="4.5" cy="4.5" r="4.5" transform="translate(147 2619)" fill="#eff0fe"/>
      </g>
      <g transform="translate(27 -2503)">
        <circle id="Ellipse_42-35" data-name="Ellipse 42" cx="4.5" cy="4.5" r="4.5" transform="translate(147 2619)" fill="#eff0fe"/>
      </g>
      <g transform="translate(-147 -2474)">
        <circle id="Ellipse_42-36" data-name="Ellipse 42" cx="4.5" cy="4.5" r="4.5" transform="translate(147 2619)" fill="#eff0fe"/>
      </g>
      <g transform="translate(-118 -2474)">
        <circle id="Ellipse_42-37" data-name="Ellipse 42" cx="4.5" cy="4.5" r="4.5" transform="translate(147 2619)" fill="#eff0fe"/>
      </g>
      <g transform="translate(-89 -2474)">
        <circle id="Ellipse_42-38" data-name="Ellipse 42" cx="4.5" cy="4.5" r="4.5" transform="translate(147 2619)" fill="#eff0fe"/>
      </g>
      <g transform="translate(-60 -2474)">
        <circle id="Ellipse_42-39" data-name="Ellipse 42" cx="4.5" cy="4.5" r="4.5" transform="translate(147 2619)" fill="#eff0fe"/>
      </g>
      <g transform="translate(-31 -2474)">
        <circle id="Ellipse_42-40" data-name="Ellipse 42" cx="4.5" cy="4.5" r="4.5" transform="translate(147 2619)" fill="#eff0fe"/>
      </g>
      <g transform="translate(-2 -2474)">
        <circle id="Ellipse_42-41" data-name="Ellipse 42" cx="4.5" cy="4.5" r="4.5" transform="translate(147 2619)" fill="#eff0fe"/>
      </g>
      <g transform="translate(27 -2474)">
        <circle id="Ellipse_42-42" data-name="Ellipse 42" cx="4.5" cy="4.5" r="4.5" transform="translate(147 2619)" fill="#eff0fe"/>
      </g>
      <g transform="translate(-147 -2445)">
        <circle id="Ellipse_42-43" data-name="Ellipse 42" cx="4.5" cy="4.5" r="4.5" transform="translate(147 2619)" fill="#eff0fe"/>
      </g>
      <g transform="translate(-118 -2445)">
        <circle id="Ellipse_42-44" data-name="Ellipse 42" cx="4.5" cy="4.5" r="4.5" transform="translate(147 2619)" fill="#eff0fe"/>
      </g>
      <g transform="translate(-89 -2445)">
        <circle id="Ellipse_42-45" data-name="Ellipse 42" cx="4.5" cy="4.5" r="4.5" transform="translate(147 2619)" fill="#eff0fe"/>
      </g>
      <g transform="translate(-60 -2445)">
        <circle id="Ellipse_42-46" data-name="Ellipse 42" cx="4.5" cy="4.5" r="4.5" transform="translate(147 2619)" fill="#eff0fe"/>
      </g>
      <g transform="translate(-31 -2445)">
        <circle id="Ellipse_42-47" data-name="Ellipse 42" cx="4.5" cy="4.5" r="4.5" transform="translate(147 2619)" fill="#eff0fe"/>
      </g>
      <g transform="translate(-2 -2445)">
        <circle id="Ellipse_42-48" data-name="Ellipse 42" cx="4.5" cy="4.5" r="4.5" transform="translate(147 2619)" fill="#eff0fe"/>
      </g>
      <g transform="translate(27 -2445)">
        <circle id="Ellipse_42-49" data-name="Ellipse 42" cx="4.5" cy="4.5" r="4.5" transform="translate(147 2619)" fill="#eff0fe"/>
      </g>
      <g transform="translate(-147 -2416)">
        <circle id="Ellipse_42-50" data-name="Ellipse 42" cx="4.5" cy="4.5" r="4.5" transform="translate(147 2619)" fill="#eff0fe"/>
      </g>
      <g transform="translate(-118 -2416)">
        <circle id="Ellipse_42-51" data-name="Ellipse 42" cx="4.5" cy="4.5" r="4.5" transform="translate(147 2619)" fill="#eff0fe"/>
      </g>
      <g transform="translate(-89 -2416)">
        <circle id="Ellipse_42-52" data-name="Ellipse 42" cx="4.5" cy="4.5" r="4.5" transform="translate(147 2619)" fill="#eff0fe"/>
      </g>
      <g transform="translate(-60 -2416)">
        <circle id="Ellipse_42-53" data-name="Ellipse 42" cx="4.5" cy="4.5" r="4.5" transform="translate(147 2619)" fill="#eff0fe"/>
      </g>
      <g transform="translate(-31 -2416)">
        <circle id="Ellipse_42-54" data-name="Ellipse 42" cx="4.5" cy="4.5" r="4.5" transform="translate(147 2619)" fill="#eff0fe"/>
      </g>
      <g transform="translate(-2 -2416)">
        <circle id="Ellipse_42-55" data-name="Ellipse 42" cx="4.5" cy="4.5" r="4.5" transform="translate(147 2619)" fill="#eff0fe"/>
      </g>
      <g transform="translate(27 -2416)">
        <circle id="Ellipse_42-56" data-name="Ellipse 42" cx="4.5" cy="4.5" r="4.5" transform="translate(147 2619)" fill="#eff0fe"/>
      </g>
      <g transform="translate(-147 -2387)">
        <circle id="Ellipse_42-57" data-name="Ellipse 42" cx="4.5" cy="4.5" r="4.5" transform="translate(147 2619)" fill="#eff0fe"/>
      </g>
      <g transform="translate(-118 -2387)">
        <circle id="Ellipse_42-58" data-name="Ellipse 42" cx="4.5" cy="4.5" r="4.5" transform="translate(147 2619)" fill="#eff0fe"/>
      </g>
      <g transform="translate(-89 -2387)">
        <circle id="Ellipse_42-59" data-name="Ellipse 42" cx="4.5" cy="4.5" r="4.5" transform="translate(147 2619)" fill="#eff0fe"/>
      </g>
      <g transform="translate(-60 -2387)">
        <circle id="Ellipse_42-60" data-name="Ellipse 42" cx="4.5" cy="4.5" r="4.5" transform="translate(147 2619)" fill="#eff0fe"/>
      </g>
      <g transform="translate(-31 -2387)">
        <circle id="Ellipse_42-61" data-name="Ellipse 42" cx="4.5" cy="4.5" r="4.5" transform="translate(147 2619)" fill="#eff0fe"/>
      </g>
      <g transform="translate(-2 -2387)">
        <circle id="Ellipse_42-62" data-name="Ellipse 42" cx="4.5" cy="4.5" r="4.5" transform="translate(147 2619)" fill="#eff0fe"/>
      </g>
      <g transform="translate(27 -2387)">
        <circle id="Ellipse_42-63" data-name="Ellipse 42" cx="4.5" cy="4.5" r="4.5" transform="translate(147 2619)" fill="#eff0fe"/>
      </g>
      <g transform="translate(-147 -2358)">
        <circle id="Ellipse_42-64" data-name="Ellipse 42" cx="4.5" cy="4.5" r="4.5" transform="translate(147 2619)" fill="#eff0fe"/>
      </g>
      <g transform="translate(-118 -2358)">
        <circle id="Ellipse_42-65" data-name="Ellipse 42" cx="4.5" cy="4.5" r="4.5" transform="translate(147 2619)" fill="#eff0fe"/>
      </g>
      <g transform="translate(-89 -2358)">
        <circle id="Ellipse_42-66" data-name="Ellipse 42" cx="4.5" cy="4.5" r="4.5" transform="translate(147 2619)" fill="#eff0fe"/>
      </g>
      <g transform="translate(-60 -2358)">
        <circle id="Ellipse_42-67" data-name="Ellipse 42" cx="4.5" cy="4.5" r="4.5" transform="translate(147 2619)" fill="#eff0fe"/>
      </g>
      <g transform="translate(-31 -2358)">
        <circle id="Ellipse_42-68" data-name="Ellipse 42" cx="4.5" cy="4.5" r="4.5" transform="translate(147 2619)" fill="#eff0fe"/>
      </g>
      <g transform="translate(-2 -2358)">
        <circle id="Ellipse_42-69" data-name="Ellipse 42" cx="4.5" cy="4.5" r="4.5" transform="translate(147 2619)" fill="#eff0fe"/>
      </g>
      <g transform="translate(27 -2358)">
        <circle id="Ellipse_42-70" data-name="Ellipse 42" cx="4.5" cy="4.5" r="4.5" transform="translate(147 2619)" fill="#eff0fe"/>
      </g>
      <g transform="translate(-147 -2329)">
        <circle id="Ellipse_42-71" data-name="Ellipse 42" cx="4.5" cy="4.5" r="4.5" transform="translate(147 2619)" fill="#eff0fe"/>
      </g>
      <g transform="translate(-118 -2329)">
        <circle id="Ellipse_42-72" data-name="Ellipse 42" cx="4.5" cy="4.5" r="4.5" transform="translate(147 2619)" fill="#eff0fe"/>
      </g>
      <g transform="translate(-89 -2329)">
        <circle id="Ellipse_42-73" data-name="Ellipse 42" cx="4.5" cy="4.5" r="4.5" transform="translate(147 2619)" fill="#eff0fe"/>
      </g>
      <g transform="translate(-60 -2329)">
        <circle id="Ellipse_42-74" data-name="Ellipse 42" cx="4.5" cy="4.5" r="4.5" transform="translate(147 2619)" fill="#eff0fe"/>
      </g>
      <g transform="translate(-31 -2329)">
        <circle id="Ellipse_42-75" data-name="Ellipse 42" cx="4.5" cy="4.5" r="4.5" transform="translate(147 2619)" fill="#eff0fe"/>
      </g>
      <g transform="translate(-2 -2329)">
        <circle id="Ellipse_42-76" data-name="Ellipse 42" cx="4.5" cy="4.5" r="4.5" transform="translate(147 2619)" fill="#eff0fe"/>
      </g>
      <g transform="translate(27 -2329)">
        <circle id="Ellipse_42-77" data-name="Ellipse 42" cx="4.5" cy="4.5" r="4.5" transform="translate(147 2619)" fill="#eff0fe"/>
      </g>
      <g transform="translate(-147 -2300)">
        <circle id="Ellipse_42-78" data-name="Ellipse 42" cx="4.5" cy="4.5" r="4.5" transform="translate(147 2619)" fill="#eff0fe"/>
      </g>
      <g transform="translate(-118 -2300)">
        <circle id="Ellipse_42-79" data-name="Ellipse 42" cx="4.5" cy="4.5" r="4.5" transform="translate(147 2619)" fill="#eff0fe"/>
      </g>
      <g transform="translate(-89 -2300)">
        <circle id="Ellipse_42-80" data-name="Ellipse 42" cx="4.5" cy="4.5" r="4.5" transform="translate(147 2619)" fill="#eff0fe"/>
      </g>
      <g transform="translate(-60 -2300)">
        <circle id="Ellipse_42-81" data-name="Ellipse 42" cx="4.5" cy="4.5" r="4.5" transform="translate(147 2619)" fill="#eff0fe"/>
      </g>
      <g transform="translate(-31 -2300)">
        <circle id="Ellipse_42-82" data-name="Ellipse 42" cx="4.5" cy="4.5" r="4.5" transform="translate(147 2619)" fill="#eff0fe"/>
      </g>
      <g transform="translate(-2 -2300)">
        <circle id="Ellipse_42-83" data-name="Ellipse 42" cx="4.5" cy="4.5" r="4.5" transform="translate(147 2619)" fill="#eff0fe"/>
      </g>
      <g transform="translate(27 -2300)">
        <circle id="Ellipse_42-84" data-name="Ellipse 42" cx="4.5" cy="4.5" r="4.5" transform="translate(147 2619)" fill="#eff0fe"/>
      </g>
      <g transform="translate(-147 -2271)">
        <circle id="Ellipse_42-85" data-name="Ellipse 42" cx="4.5" cy="4.5" r="4.5" transform="translate(147 2619)" fill="#eff0fe"/>
      </g>
      <g transform="translate(-118 -2271)">
        <circle id="Ellipse_42-86" data-name="Ellipse 42" cx="4.5" cy="4.5" r="4.5" transform="translate(147 2619)" fill="#eff0fe"/>
      </g>
      <g transform="translate(-89 -2271)">
        <circle id="Ellipse_42-87" data-name="Ellipse 42" cx="4.5" cy="4.5" r="4.5" transform="translate(147 2619)" fill="#eff0fe"/>
      </g>
      <g transform="translate(-60 -2271)">
        <circle id="Ellipse_42-88" data-name="Ellipse 42" cx="4.5" cy="4.5" r="4.5" transform="translate(147 2619)" fill="#eff0fe"/>
      </g>
      <g transform="translate(-31 -2271)">
        <circle id="Ellipse_42-89" data-name="Ellipse 42" cx="4.5" cy="4.5" r="4.5" transform="translate(147 2619)" fill="#eff0fe"/>
      </g>
      <g transform="translate(-2 -2271)">
        <circle id="Ellipse_42-90" data-name="Ellipse 42" cx="4.5" cy="4.5" r="4.5" transform="translate(147 2619)" fill="#eff0fe"/>
      </g>
      <g transform="translate(27 -2271)">
        <circle id="Ellipse_42-91" data-name="Ellipse 42" cx="4.5" cy="4.5" r="4.5" transform="translate(147 2619)" fill="#eff0fe"/>
      </g>
      <g transform="translate(-147 -2242)">
        <circle id="Ellipse_42-92" data-name="Ellipse 42" cx="4.5" cy="4.5" r="4.5" transform="translate(147 2619)" fill="#eff0fe"/>
      </g>
      <g transform="translate(-118 -2242)">
        <circle id="Ellipse_42-93" data-name="Ellipse 42" cx="4.5" cy="4.5" r="4.5" transform="translate(147 2619)" fill="#eff0fe"/>
      </g>
      <g transform="translate(-89 -2242)">
        <circle id="Ellipse_42-94" data-name="Ellipse 42" cx="4.5" cy="4.5" r="4.5" transform="translate(147 2619)" fill="#eff0fe"/>
      </g>
      <g transform="translate(-60 -2242)">
        <circle id="Ellipse_42-95" data-name="Ellipse 42" cx="4.5" cy="4.5" r="4.5" transform="translate(147 2619)" fill="#eff0fe"/>
      </g>
      <g transform="translate(-31 -2242)">
        <circle id="Ellipse_42-96" data-name="Ellipse 42" cx="4.5" cy="4.5" r="4.5" transform="translate(147 2619)" fill="#eff0fe"/>
      </g>
      <g transform="translate(-2 -2242)">
        <circle id="Ellipse_42-97" data-name="Ellipse 42" cx="4.5" cy="4.5" r="4.5" transform="translate(147 2619)" fill="#eff0fe"/>
      </g>
      <g transform="translate(27 -2242)">
        <circle id="Ellipse_42-98" data-name="Ellipse 42" cx="4.5" cy="4.5" r="4.5" transform="translate(147 2619)" fill="#eff0fe"/>
      </g>
      <g transform="translate(-147 -2213)">
        <circle id="Ellipse_42-99" data-name="Ellipse 42" cx="4.5" cy="4.5" r="4.5" transform="translate(147 2619)" fill="#eff0fe"/>
      </g>
      <g transform="translate(-118 -2213)">
        <circle id="Ellipse_42-100" data-name="Ellipse 42" cx="4.5" cy="4.5" r="4.5" transform="translate(147 2619)" fill="#eff0fe"/>
      </g>
      <g transform="translate(-89 -2213)">
        <circle id="Ellipse_42-101" data-name="Ellipse 42" cx="4.5" cy="4.5" r="4.5" transform="translate(147 2619)" fill="#eff0fe"/>
      </g>
      <g transform="translate(-60 -2213)">
        <circle id="Ellipse_42-102" data-name="Ellipse 42" cx="4.5" cy="4.5" r="4.5" transform="translate(147 2619)" fill="#eff0fe"/>
      </g>
      <g transform="translate(-31 -2213)">
        <circle id="Ellipse_42-103" data-name="Ellipse 42" cx="4.5" cy="4.5" r="4.5" transform="translate(147 2619)" fill="#eff0fe"/>
      </g>
      <g transform="translate(-2 -2213)">
        <circle id="Ellipse_42-104" data-name="Ellipse 42" cx="4.5" cy="4.5" r="4.5" transform="translate(147 2619)" fill="#eff0fe"/>
      </g>
      <g transform="translate(27 -2213)">
        <circle id="Ellipse_42-105" data-name="Ellipse 42" cx="4.5" cy="4.5" r="4.5" transform="translate(147 2619)" fill="#eff0fe"/>
      </g>
      <g transform="translate(-147 -2184)">
        <circle id="Ellipse_42-106" data-name="Ellipse 42" cx="4.5" cy="4.5" r="4.5" transform="translate(147 2619)" fill="#eff0fe"/>
      </g>
      <g transform="translate(-118 -2184)">
        <circle id="Ellipse_42-107" data-name="Ellipse 42" cx="4.5" cy="4.5" r="4.5" transform="translate(147 2619)" fill="#eff0fe"/>
      </g>
      <g transform="translate(-89 -2184)">
        <circle id="Ellipse_42-108" data-name="Ellipse 42" cx="4.5" cy="4.5" r="4.5" transform="translate(147 2619)" fill="#eff0fe"/>
      </g>
      <g transform="translate(-60 -2184)">
        <circle id="Ellipse_42-109" data-name="Ellipse 42" cx="4.5" cy="4.5" r="4.5" transform="translate(147 2619)" fill="#eff0fe"/>
      </g>
      <g transform="translate(-31 -2184)">
        <circle id="Ellipse_42-110" data-name="Ellipse 42" cx="4.5" cy="4.5" r="4.5" transform="translate(147 2619)" fill="#eff0fe"/>
      </g>
      <g transform="translate(-2 -2184)">
        <circle id="Ellipse_42-111" data-name="Ellipse 42" cx="4.5" cy="4.5" r="4.5" transform="translate(147 2619)" fill="#eff0fe"/>
      </g>
      <g transform="translate(27 -2184)">
        <circle id="Ellipse_42-112" data-name="Ellipse 42" cx="4.5" cy="4.5" r="4.5" transform="translate(147 2619)" fill="#eff0fe"/>
      </g>
      <g transform="translate(-147 -2155)">
        <circle id="Ellipse_42-113" data-name="Ellipse 42" cx="4.5" cy="4.5" r="4.5" transform="translate(147 2619)" fill="#eff0fe"/>
      </g>
      <g transform="translate(-118 -2155)">
        <circle id="Ellipse_42-114" data-name="Ellipse 42" cx="4.5" cy="4.5" r="4.5" transform="translate(147 2619)" fill="#eff0fe"/>
      </g>
      <g transform="translate(-89 -2155)">
        <circle id="Ellipse_42-115" data-name="Ellipse 42" cx="4.5" cy="4.5" r="4.5" transform="translate(147 2619)" fill="#eff0fe"/>
      </g>
      <g transform="translate(-60 -2155)">
        <circle id="Ellipse_42-116" data-name="Ellipse 42" cx="4.5" cy="4.5" r="4.5" transform="translate(147 2619)" fill="#eff0fe"/>
      </g>
      <g transform="translate(-31 -2155)">
        <circle id="Ellipse_42-117" data-name="Ellipse 42" cx="4.5" cy="4.5" r="4.5" transform="translate(147 2619)" fill="#eff0fe"/>
      </g>
      <g transform="translate(-2 -2155)">
        <circle id="Ellipse_42-118" data-name="Ellipse 42" cx="4.5" cy="4.5" r="4.5" transform="translate(147 2619)" fill="#eff0fe"/>
      </g>
      <g transform="translate(27 -2155)">
        <circle id="Ellipse_42-119" data-name="Ellipse 42" cx="4.5" cy="4.5" r="4.5" transform="translate(147 2619)" fill="#eff0fe"/>
      </g>
      <g transform="translate(-147 -2126)">
        <circle id="Ellipse_42-120" data-name="Ellipse 42" cx="4.5" cy="4.5" r="4.5" transform="translate(147 2619)" fill="#eff0fe"/>
      </g>
      <g transform="translate(-118 -2126)">
        <circle id="Ellipse_42-121" data-name="Ellipse 42" cx="4.5" cy="4.5" r="4.5" transform="translate(147 2619)" fill="#eff0fe"/>
      </g>
      <g transform="translate(-89 -2126)">
        <circle id="Ellipse_42-122" data-name="Ellipse 42" cx="4.5" cy="4.5" r="4.5" transform="translate(147 2619)" fill="#eff0fe"/>
      </g>
      <g transform="translate(-60 -2126)">
        <circle id="Ellipse_42-123" data-name="Ellipse 42" cx="4.5" cy="4.5" r="4.5" transform="translate(147 2619)" fill="#eff0fe"/>
      </g>
      <g transform="translate(-31 -2126)">
        <circle id="Ellipse_42-124" data-name="Ellipse 42" cx="4.5" cy="4.5" r="4.5" transform="translate(147 2619)" fill="#eff0fe"/>
      </g>
      <g transform="translate(-2 -2126)">
        <circle id="Ellipse_42-125" data-name="Ellipse 42" cx="4.5" cy="4.5" r="4.5" transform="translate(147 2619)" fill="#eff0fe"/>
      </g>
      <g transform="translate(27 -2126)">
        <circle id="Ellipse_42-126" data-name="Ellipse 42" cx="4.5" cy="4.5" r="4.5" transform="translate(147 2619)" fill="#eff0fe"/>
      </g>
    </g>
    <g id="Component_1_1" data-name="Component 1 – 1" transform="translate(219 949)">
      <g id="Pricing_Card_Illustration" data-name="Pricing Card Illustration" transform="translate(-219 -949)">
        <rect id="Rectangle_18" data-name="Rectangle 18" width="128" height="221" rx="27" transform="translate(219 1002)" fill="#ff014e"/>
        <rect id="Rectangle_19" data-name="Rectangle 19" width="70" height="32" rx="16" transform="translate(248 1178)" fill="#fff" opacity="0.2"/>
        <g id="Repeat_Grid_2" data-name="Repeat Grid 2" transform="translate(237.244 1027.254)" clip-path="url(#clip-path-2)">
          <g id="Group_5" data-name="Group 5" transform="translate(-354.454 -953.663)">
            <rect id="Rectangle_13" data-name="Rectangle 13" width="78" height="8" rx="4" transform="translate(383 963)" fill="#fff" opacity="0.2"/>
            <g id="user" transform="translate(352.454 951.663)" opacity="0.5">
              <path id="Path_4" data-name="Path 4" d="M21.883,18.984v.911a2.016,2.016,0,0,1-1.988,1.988H3.988A2.016,2.016,0,0,1,2,19.895v-.911c0-2.4,2.817-3.894,5.468-5.054l.249-.124a.664.664,0,0,1,.621.041A6.428,6.428,0,0,0,11.9,14.924a6.668,6.668,0,0,0,3.562-1.077.664.664,0,0,1,.621-.041l.249.124C19.066,15.09,21.883,16.54,21.883,18.984ZM11.942,2a5.209,5.209,0,0,1,4.929,5.468,5.209,5.209,0,0,1-4.929,5.468A5.209,5.209,0,0,1,7.012,7.468,5.209,5.209,0,0,1,11.942,2Z" fill="#fff"/>
            </g>
          </g>
          <g id="Group_5-2" data-name="Group 5" transform="translate(-354.454 -913.663)">
            <rect id="Rectangle_13-2" data-name="Rectangle 13" width="78" height="8" rx="4" transform="translate(383 963)" fill="#fff" opacity="0.2"/>
            <g id="user-2" data-name="user" transform="translate(352.454 951.663)" opacity="0.5">
              <path id="Path_4-2" data-name="Path 4" d="M21.883,18.984v.911a2.016,2.016,0,0,1-1.988,1.988H3.988A2.016,2.016,0,0,1,2,19.895v-.911c0-2.4,2.817-3.894,5.468-5.054l.249-.124a.664.664,0,0,1,.621.041A6.428,6.428,0,0,0,11.9,14.924a6.668,6.668,0,0,0,3.562-1.077.664.664,0,0,1,.621-.041l.249.124C19.066,15.09,21.883,16.54,21.883,18.984ZM11.942,2a5.209,5.209,0,0,1,4.929,5.468,5.209,5.209,0,0,1-4.929,5.468A5.209,5.209,0,0,1,7.012,7.468,5.209,5.209,0,0,1,11.942,2Z" fill="#fff"/>
            </g>
          </g>
          <g id="Group_5-3" data-name="Group 5" transform="translate(-354.454 -873.663)">
            <rect id="Rectangle_13-3" data-name="Rectangle 13" width="78" height="8" rx="4" transform="translate(383 963)" fill="#fff" opacity="0.2"/>
            <g id="user-3" data-name="user" transform="translate(352.454 951.663)" opacity="0.5">
              <path id="Path_4-3" data-name="Path 4" d="M21.883,18.984v.911a2.016,2.016,0,0,1-1.988,1.988H3.988A2.016,2.016,0,0,1,2,19.895v-.911c0-2.4,2.817-3.894,5.468-5.054l.249-.124a.664.664,0,0,1,.621.041A6.428,6.428,0,0,0,11.9,14.924a6.668,6.668,0,0,0,3.562-1.077.664.664,0,0,1,.621-.041l.249.124C19.066,15.09,21.883,16.54,21.883,18.984ZM11.942,2a5.209,5.209,0,0,1,4.929,5.468,5.209,5.209,0,0,1-4.929,5.468A5.209,5.209,0,0,1,7.012,7.468,5.209,5.209,0,0,1,11.942,2Z" fill="#fff"/>
            </g>
          </g>
          <g id="Group_5-4" data-name="Group 5" transform="translate(-354.454 -833.663)">
            <rect id="Rectangle_13-4" data-name="Rectangle 13" width="78" height="8" rx="4" transform="translate(383 963)" fill="#fff" opacity="0.2"/>
            <g id="user-4" data-name="user" transform="translate(352.454 951.663)" opacity="0.5">
              <path id="Path_4-4" data-name="Path 4" d="M21.883,18.984v.911a2.016,2.016,0,0,1-1.988,1.988H3.988A2.016,2.016,0,0,1,2,19.895v-.911c0-2.4,2.817-3.894,5.468-5.054l.249-.124a.664.664,0,0,1,.621.041A6.428,6.428,0,0,0,11.9,14.924a6.668,6.668,0,0,0,3.562-1.077.664.664,0,0,1,.621-.041l.249.124C19.066,15.09,21.883,16.54,21.883,18.984ZM11.942,2a5.209,5.209,0,0,1,4.929,5.468,5.209,5.209,0,0,1-4.929,5.468A5.209,5.209,0,0,1,7.012,7.468,5.209,5.209,0,0,1,11.942,2Z" fill="#fff"/>
            </g>
          </g>
        </g>
      </g>
      <g id="Pricing_Card_" data-name="Pricing Card " transform="translate(-219 -949)">
        <rect id="Rectangle_8" data-name="Rectangle 8" width="174" height="300" rx="27" transform="translate(386 949)" fill="#474dff"/>
        <rect id="Rectangle_17" data-name="Rectangle 17" width="96" height="44" rx="22" transform="translate(425 1188)" fill="#fff" opacity="0.2"/>
        <g id="Repeat_Grid_1" data-name="Repeat Grid 1" transform="translate(410.803 983.334)" clip-path="url(#clip-path-3)">
          <g id="Group_5-5" data-name="Group 5" transform="translate(-354.454 -953.663)">
            <rect id="Rectangle_13-5" data-name="Rectangle 13" width="78" height="8" rx="4" transform="translate(383 963)" fill="#fff" opacity="0.2"/>
            <g id="user-5" data-name="user" transform="translate(352.454 951.663)" opacity="0.5">
              <path id="Path_4-5" data-name="Path 4" d="M21.883,18.984v.911a2.016,2.016,0,0,1-1.988,1.988H3.988A2.016,2.016,0,0,1,2,19.895v-.911c0-2.4,2.817-3.894,5.468-5.054l.249-.124a.664.664,0,0,1,.621.041A6.428,6.428,0,0,0,11.9,14.924a6.668,6.668,0,0,0,3.562-1.077.664.664,0,0,1,.621-.041l.249.124C19.066,15.09,21.883,16.54,21.883,18.984ZM11.942,2a5.209,5.209,0,0,1,4.929,5.468,5.209,5.209,0,0,1-4.929,5.468A5.209,5.209,0,0,1,7.012,7.468,5.209,5.209,0,0,1,11.942,2Z" fill="#fff"/>
            </g>
          </g>
          <g id="Group_5-6" data-name="Group 5" transform="translate(-354.454 -913.663)">
            <rect id="Rectangle_13-6" data-name="Rectangle 13" width="78" height="8" rx="4" transform="translate(383 963)" fill="#fff" opacity="0.2"/>
            <g id="user-6" data-name="user" transform="translate(352.454 951.663)" opacity="0.5">
              <path id="Path_4-6" data-name="Path 4" d="M21.883,18.984v.911a2.016,2.016,0,0,1-1.988,1.988H3.988A2.016,2.016,0,0,1,2,19.895v-.911c0-2.4,2.817-3.894,5.468-5.054l.249-.124a.664.664,0,0,1,.621.041A6.428,6.428,0,0,0,11.9,14.924a6.668,6.668,0,0,0,3.562-1.077.664.664,0,0,1,.621-.041l.249.124C19.066,15.09,21.883,16.54,21.883,18.984ZM11.942,2a5.209,5.209,0,0,1,4.929,5.468,5.209,5.209,0,0,1-4.929,5.468A5.209,5.209,0,0,1,7.012,7.468,5.209,5.209,0,0,1,11.942,2Z" fill="#fff"/>
            </g>
          </g>
          <g id="Group_5-7" data-name="Group 5" transform="translate(-354.454 -873.663)">
            <rect id="Rectangle_13-7" data-name="Rectangle 13" width="78" height="8" rx="4" transform="translate(383 963)" fill="#fff" opacity="0.2"/>
            <g id="user-7" data-name="user" transform="translate(352.454 951.663)" opacity="0.5">
              <path id="Path_4-7" data-name="Path 4" d="M21.883,18.984v.911a2.016,2.016,0,0,1-1.988,1.988H3.988A2.016,2.016,0,0,1,2,19.895v-.911c0-2.4,2.817-3.894,5.468-5.054l.249-.124a.664.664,0,0,1,.621.041A6.428,6.428,0,0,0,11.9,14.924a6.668,6.668,0,0,0,3.562-1.077.664.664,0,0,1,.621-.041l.249.124C19.066,15.09,21.883,16.54,21.883,18.984ZM11.942,2a5.209,5.209,0,0,1,4.929,5.468,5.209,5.209,0,0,1-4.929,5.468A5.209,5.209,0,0,1,7.012,7.468,5.209,5.209,0,0,1,11.942,2Z" fill="#fff"/>
            </g>
          </g>
          <g id="Group_5-8" data-name="Group 5" transform="translate(-354.454 -833.663)">
            <rect id="Rectangle_13-8" data-name="Rectangle 13" width="78" height="8" rx="4" transform="translate(383 963)" fill="#fff" opacity="0.2"/>
            <g id="user-8" data-name="user" transform="translate(352.454 951.663)" opacity="0.5">
              <path id="Path_4-8" data-name="Path 4" d="M21.883,18.984v.911a2.016,2.016,0,0,1-1.988,1.988H3.988A2.016,2.016,0,0,1,2,19.895v-.911c0-2.4,2.817-3.894,5.468-5.054l.249-.124a.664.664,0,0,1,.621.041A6.428,6.428,0,0,0,11.9,14.924a6.668,6.668,0,0,0,3.562-1.077.664.664,0,0,1,.621-.041l.249.124C19.066,15.09,21.883,16.54,21.883,18.984ZM11.942,2a5.209,5.209,0,0,1,4.929,5.468,5.209,5.209,0,0,1-4.929,5.468A5.209,5.209,0,0,1,7.012,7.468,5.209,5.209,0,0,1,11.942,2Z" fill="#fff"/>
            </g>
          </g>
          <g id="Group_5-9" data-name="Group 5" transform="translate(-354.454 -793.663)">
            <rect id="Rectangle_13-9" data-name="Rectangle 13" width="78" height="8" rx="4" transform="translate(383 963)" fill="#fff" opacity="0.2"/>
            <g id="user-9" data-name="user" transform="translate(352.454 951.663)" opacity="0.5">
              <path id="Path_4-9" data-name="Path 4" d="M21.883,18.984v.911a2.016,2.016,0,0,1-1.988,1.988H3.988A2.016,2.016,0,0,1,2,19.895v-.911c0-2.4,2.817-3.894,5.468-5.054l.249-.124a.664.664,0,0,1,.621.041A6.428,6.428,0,0,0,11.9,14.924a6.668,6.668,0,0,0,3.562-1.077.664.664,0,0,1,.621-.041l.249.124C19.066,15.09,21.883,16.54,21.883,18.984ZM11.942,2a5.209,5.209,0,0,1,4.929,5.468,5.209,5.209,0,0,1-4.929,5.468A5.209,5.209,0,0,1,7.012,7.468,5.209,5.209,0,0,1,11.942,2Z" fill="#fff"/>
            </g>
          </g>
        </g>
        <g transform="matrix(1, 0, 0, 1, 219, 827)" filter="url(#Rectangle_22)">
          <rect id="Rectangle_22-2" data-name="Rectangle 22" width="204" height="48" rx="10" transform="translate(184 225)" fill="#fff"/>
        </g>
        <g id="user-10" data-name="user" transform="translate(416.909 1066)">
          <path id="Path_4-10" data-name="Path 4" d="M21.883,18.984v.911a2.016,2.016,0,0,1-1.988,1.988H3.988A2.016,2.016,0,0,1,2,19.895v-.911c0-2.4,2.817-3.894,5.468-5.054l.249-.124a.664.664,0,0,1,.621.041A6.428,6.428,0,0,0,11.9,14.924a6.668,6.668,0,0,0,3.562-1.077.664.664,0,0,1,.621-.041l.249.124C19.066,15.09,21.883,16.54,21.883,18.984ZM11.942,2a5.209,5.209,0,0,1,4.929,5.468,5.209,5.209,0,0,1-4.929,5.468A5.209,5.209,0,0,1,7.012,7.468,5.209,5.209,0,0,1,11.942,2Z" transform="translate(-2 -2)" fill="#ffc432"/>
        </g>
        <rect id="Rectangle_23" data-name="Rectangle 23" width="112" height="8" rx="4" transform="translate(449.553 1072)" fill="#ffc432"/>
        <g id="hm_icons_star" transform="translate(573.973 1069)">
          <path id="Path_12" data-name="Path 12" d="M.36,5.819a.831.831,0,0,1,.717-.6l4-.3L6.573,1.278A.72.72,0,0,1,7.29.8a.823.823,0,0,1,.777.538L9.561,4.982l4,.3a.662.662,0,0,1,.717.538.831.831,0,0,1-.239.9L10.994,9.284l.956,3.824a.858.858,0,0,1-.3.9.8.8,0,0,1-.956.06L7.29,11.972,3.885,14.064A.811.811,0,0,1,2.929,14a.766.766,0,0,1-.3-.9l.956-3.824L.539,6.715A.812.812,0,0,1,.36,5.819Z" transform="translate(-0.3 -0.8)" fill="#ffc432"/>
        </g>
      </g>
    </g>
  </g>
</svg>
