<svg xmlns="http://www.w3.org/2000/svg" xmlns:xlink="http://www.w3.org/1999/xlink" width="188" height="194" viewBox="0 0 188 194">
  <defs>
    <clipPath id="clip-path">
      <rect width="188" height="194" fill="none"/>
    </clipPath>
  </defs>
  <g id="Pattern" opacity="0.1" clip-path="url(#clip-path)">
    <g transform="translate(-147 -2619)">
      <circle id="Ellipse_42" data-name="Ellipse 42" cx="4.5" cy="4.5" r="4.5" transform="translate(147 2619)" fill="#eff0fe"/>
    </g>
    <g transform="translate(-118 -2619)">
      <circle id="Ellipse_42-2" data-name="Ellipse 42" cx="4.5" cy="4.5" r="4.5" transform="translate(147 2619)" fill="#eff0fe"/>
    </g>
    <g transform="translate(-89 -2619)">
      <circle id="Ellipse_42-3" data-name="Ellipse 42" cx="4.5" cy="4.5" r="4.5" transform="translate(147 2619)" fill="#eff0fe"/>
    </g>
    <g transform="translate(-60 -2619)">
      <circle id="Ellipse_42-4" data-name="Ellipse 42" cx="4.5" cy="4.5" r="4.5" transform="translate(147 2619)" fill="#eff0fe"/>
    </g>
    <g transform="translate(-31 -2619)">
      <circle id="Ellipse_42-5" data-name="Ellipse 42" cx="4.5" cy="4.5" r="4.5" transform="translate(147 2619)" fill="#eff0fe"/>
    </g>
    <g transform="translate(-2 -2619)">
      <circle id="Ellipse_42-6" data-name="Ellipse 42" cx="4.5" cy="4.5" r="4.5" transform="translate(147 2619)" fill="#eff0fe"/>
    </g>
    <g transform="translate(27 -2619)">
      <circle id="Ellipse_42-7" data-name="Ellipse 42" cx="4.5" cy="4.5" r="4.5" transform="translate(147 2619)" fill="#eff0fe"/>
    </g>
    <g transform="translate(-147 -2590)">
      <circle id="Ellipse_42-8" data-name="Ellipse 42" cx="4.5" cy="4.5" r="4.5" transform="translate(147 2619)" fill="#eff0fe"/>
    </g>
    <g transform="translate(-118 -2590)">
      <circle id="Ellipse_42-9" data-name="Ellipse 42" cx="4.5" cy="4.5" r="4.5" transform="translate(147 2619)" fill="#eff0fe"/>
    </g>
    <g transform="translate(-89 -2590)">
      <circle id="Ellipse_42-10" data-name="Ellipse 42" cx="4.5" cy="4.5" r="4.5" transform="translate(147 2619)" fill="#eff0fe"/>
    </g>
    <g transform="translate(-60 -2590)">
      <circle id="Ellipse_42-11" data-name="Ellipse 42" cx="4.5" cy="4.5" r="4.5" transform="translate(147 2619)" fill="#eff0fe"/>
    </g>
    <g transform="translate(-31 -2590)">
      <circle id="Ellipse_42-12" data-name="Ellipse 42" cx="4.5" cy="4.5" r="4.5" transform="translate(147 2619)" fill="#eff0fe"/>
    </g>
    <g transform="translate(-2 -2590)">
      <circle id="Ellipse_42-13" data-name="Ellipse 42" cx="4.5" cy="4.5" r="4.5" transform="translate(147 2619)" fill="#eff0fe"/>
    </g>
    <g transform="translate(27 -2590)">
      <circle id="Ellipse_42-14" data-name="Ellipse 42" cx="4.5" cy="4.5" r="4.5" transform="translate(147 2619)" fill="#eff0fe"/>
    </g>
    <g transform="translate(-147 -2561)">
      <circle id="Ellipse_42-15" data-name="Ellipse 42" cx="4.5" cy="4.5" r="4.5" transform="translate(147 2619)" fill="#eff0fe"/>
    </g>
    <g transform="translate(-118 -2561)">
      <circle id="Ellipse_42-16" data-name="Ellipse 42" cx="4.5" cy="4.5" r="4.5" transform="translate(147 2619)" fill="#eff0fe"/>
    </g>
    <g transform="translate(-89 -2561)">
      <circle id="Ellipse_42-17" data-name="Ellipse 42" cx="4.5" cy="4.5" r="4.5" transform="translate(147 2619)" fill="#eff0fe"/>
    </g>
    <g transform="translate(-60 -2561)">
      <circle id="Ellipse_42-18" data-name="Ellipse 42" cx="4.5" cy="4.5" r="4.5" transform="translate(147 2619)" fill="#eff0fe"/>
    </g>
    <g transform="translate(-31 -2561)">
      <circle id="Ellipse_42-19" data-name="Ellipse 42" cx="4.5" cy="4.5" r="4.5" transform="translate(147 2619)" fill="#eff0fe"/>
    </g>
    <g transform="translate(-2 -2561)">
      <circle id="Ellipse_42-20" data-name="Ellipse 42" cx="4.5" cy="4.5" r="4.5" transform="translate(147 2619)" fill="#eff0fe"/>
    </g>
    <g transform="translate(27 -2561)">
      <circle id="Ellipse_42-21" data-name="Ellipse 42" cx="4.5" cy="4.5" r="4.5" transform="translate(147 2619)" fill="#eff0fe"/>
    </g>
    <g transform="translate(-147 -2532)">
      <circle id="Ellipse_42-22" data-name="Ellipse 42" cx="4.5" cy="4.5" r="4.5" transform="translate(147 2619)" fill="#eff0fe"/>
    </g>
    <g transform="translate(-118 -2532)">
      <circle id="Ellipse_42-23" data-name="Ellipse 42" cx="4.5" cy="4.5" r="4.5" transform="translate(147 2619)" fill="#eff0fe"/>
    </g>
    <g transform="translate(-89 -2532)">
      <circle id="Ellipse_42-24" data-name="Ellipse 42" cx="4.5" cy="4.5" r="4.5" transform="translate(147 2619)" fill="#eff0fe"/>
    </g>
    <g transform="translate(-60 -2532)">
      <circle id="Ellipse_42-25" data-name="Ellipse 42" cx="4.5" cy="4.5" r="4.5" transform="translate(147 2619)" fill="#eff0fe"/>
    </g>
    <g transform="translate(-31 -2532)">
      <circle id="Ellipse_42-26" data-name="Ellipse 42" cx="4.5" cy="4.5" r="4.5" transform="translate(147 2619)" fill="#eff0fe"/>
    </g>
    <g transform="translate(-2 -2532)">
      <circle id="Ellipse_42-27" data-name="Ellipse 42" cx="4.5" cy="4.5" r="4.5" transform="translate(147 2619)" fill="#eff0fe"/>
    </g>
    <g transform="translate(27 -2532)">
      <circle id="Ellipse_42-28" data-name="Ellipse 42" cx="4.5" cy="4.5" r="4.5" transform="translate(147 2619)" fill="#eff0fe"/>
    </g>
    <g transform="translate(-147 -2503)">
      <circle id="Ellipse_42-29" data-name="Ellipse 42" cx="4.5" cy="4.5" r="4.5" transform="translate(147 2619)" fill="#eff0fe"/>
    </g>
    <g transform="translate(-118 -2503)">
      <circle id="Ellipse_42-30" data-name="Ellipse 42" cx="4.5" cy="4.5" r="4.5" transform="translate(147 2619)" fill="#eff0fe"/>
    </g>
    <g transform="translate(-89 -2503)">
      <circle id="Ellipse_42-31" data-name="Ellipse 42" cx="4.5" cy="4.5" r="4.5" transform="translate(147 2619)" fill="#eff0fe"/>
    </g>
    <g transform="translate(-60 -2503)">
      <circle id="Ellipse_42-32" data-name="Ellipse 42" cx="4.5" cy="4.5" r="4.5" transform="translate(147 2619)" fill="#eff0fe"/>
    </g>
    <g transform="translate(-31 -2503)">
      <circle id="Ellipse_42-33" data-name="Ellipse 42" cx="4.5" cy="4.5" r="4.5" transform="translate(147 2619)" fill="#eff0fe"/>
    </g>
    <g transform="translate(-2 -2503)">
      <circle id="Ellipse_42-34" data-name="Ellipse 42" cx="4.5" cy="4.5" r="4.5" transform="translate(147 2619)" fill="#eff0fe"/>
    </g>
    <g transform="translate(27 -2503)">
      <circle id="Ellipse_42-35" data-name="Ellipse 42" cx="4.5" cy="4.5" r="4.5" transform="translate(147 2619)" fill="#eff0fe"/>
    </g>
    <g transform="translate(-147 -2474)">
      <circle id="Ellipse_42-36" data-name="Ellipse 42" cx="4.5" cy="4.5" r="4.5" transform="translate(147 2619)" fill="#eff0fe"/>
    </g>
    <g transform="translate(-118 -2474)">
      <circle id="Ellipse_42-37" data-name="Ellipse 42" cx="4.5" cy="4.5" r="4.5" transform="translate(147 2619)" fill="#eff0fe"/>
    </g>
    <g transform="translate(-89 -2474)">
      <circle id="Ellipse_42-38" data-name="Ellipse 42" cx="4.5" cy="4.5" r="4.5" transform="translate(147 2619)" fill="#eff0fe"/>
    </g>
    <g transform="translate(-60 -2474)">
      <circle id="Ellipse_42-39" data-name="Ellipse 42" cx="4.5" cy="4.5" r="4.5" transform="translate(147 2619)" fill="#eff0fe"/>
    </g>
    <g transform="translate(-31 -2474)">
      <circle id="Ellipse_42-40" data-name="Ellipse 42" cx="4.5" cy="4.5" r="4.5" transform="translate(147 2619)" fill="#eff0fe"/>
    </g>
    <g transform="translate(-2 -2474)">
      <circle id="Ellipse_42-41" data-name="Ellipse 42" cx="4.5" cy="4.5" r="4.5" transform="translate(147 2619)" fill="#eff0fe"/>
    </g>
    <g transform="translate(27 -2474)">
      <circle id="Ellipse_42-42" data-name="Ellipse 42" cx="4.5" cy="4.5" r="4.5" transform="translate(147 2619)" fill="#eff0fe"/>
    </g>
    <g transform="translate(-147 -2445)">
      <circle id="Ellipse_42-43" data-name="Ellipse 42" cx="4.5" cy="4.5" r="4.5" transform="translate(147 2619)" fill="#eff0fe"/>
    </g>
    <g transform="translate(-118 -2445)">
      <circle id="Ellipse_42-44" data-name="Ellipse 42" cx="4.5" cy="4.5" r="4.5" transform="translate(147 2619)" fill="#eff0fe"/>
    </g>
    <g transform="translate(-89 -2445)">
      <circle id="Ellipse_42-45" data-name="Ellipse 42" cx="4.5" cy="4.5" r="4.5" transform="translate(147 2619)" fill="#eff0fe"/>
    </g>
    <g transform="translate(-60 -2445)">
      <circle id="Ellipse_42-46" data-name="Ellipse 42" cx="4.5" cy="4.5" r="4.5" transform="translate(147 2619)" fill="#eff0fe"/>
    </g>
    <g transform="translate(-31 -2445)">
      <circle id="Ellipse_42-47" data-name="Ellipse 42" cx="4.5" cy="4.5" r="4.5" transform="translate(147 2619)" fill="#eff0fe"/>
    </g>
    <g transform="translate(-2 -2445)">
      <circle id="Ellipse_42-48" data-name="Ellipse 42" cx="4.5" cy="4.5" r="4.5" transform="translate(147 2619)" fill="#eff0fe"/>
    </g>
    <g transform="translate(27 -2445)">
      <circle id="Ellipse_42-49" data-name="Ellipse 42" cx="4.5" cy="4.5" r="4.5" transform="translate(147 2619)" fill="#eff0fe"/>
    </g>
  </g>
</svg>
