<svg xmlns="http://www.w3.org/2000/svg" width="1022.853" height="49.45" viewBox="0 0 1022.853 49.45">
  <g id="Group_3271" data-name="Group 3271" transform="translate(-92.349 -7.078)">
    <g id="Group_67" data-name="Group 67" transform="translate(-59)">
      <text id="_7_January_2020:" data-name="7 January 2020:" transform="translate(527 31)" fill="#fff" font-size="13" font-family="SegoeUI-Semibold, Segoe UI" font-weight="600" letter-spacing="0.028em"><tspan x="0" y="0">7 JANUARY 2020:</tspan></text>
      <text id="_25_OFF_on_all_Likes_Followers_for_a_limited_time_" data-name="25% OFF on all Likes &amp; Followers for a limited time!" transform="translate(644 31)" fill="lime" font-size="13" font-family="SegoeUI, Segoe UI" letter-spacing="0.028em"><tspan x="0" y="0">25% OFF</tspan><tspan y="0" xml:space="preserve" fill="#fff" font-family="SegoeUI-Semibold, Segoe UI" font-weight="600"> On All </tspan><tspan y="0" fill="#ffe226" font-family="SegoeUIBlack, Segoe UI">Likes &amp; Followers</tspan><tspan y="0" xml:space="preserve" fill="#fff" font-family="SegoeUI-Semibold, Segoe UI" font-weight="600"> For A Limited Time!</tspan></text>
    </g>
    <text id="_Prices_displayed_have_the_discount_included_" data-name="(Prices displayed have the discount included) " transform="translate(555 49)" fill="#fff" font-size="12" font-family="SegoeUI-Semibold, Segoe UI" font-weight="600" letter-spacing="0.028em" opacity="0.5"><tspan x="0" y="0">(Prices displayed have the discount included) </tspan></text>
    <g id="Grafiiti">
      <g id="Group_65" data-name="Group 65" transform="matrix(0.616, 0.788, -0.788, 0.616, 1000.331, -175.311)">
        <path id="Path_120" data-name="Path 120" d="M178.889,116.917a4.144,4.144,0,0,1-2.045-.776c-.655-.4-1.278-.868-1.958-1.222-1.368-.713-2.217-.234-2.383,1.315a13.876,13.876,0,0,0-.028,1.443,8.527,8.527,0,0,1-.191,2.008,2.711,2.711,0,0,1-3.854,2.048,11.627,11.627,0,0,1-1.876-1.069c-.844-.51-1.66-1.423-2.736-.883-1.1.553-.807,1.744-.825,2.727a10.809,10.809,0,0,1-.217,2.295,2.693,2.693,0,0,1-3.646,2.039,9.486,9.486,0,0,1-2.135-1.194,3.87,3.87,0,0,0-2.353-.973c-.422.029-.581-.277-.739-.575-.226-.427-.172-.735.372-.826a3.284,3.284,0,0,1,2.233.371c.585.333,1.139.72,1.716,1.067a8.522,8.522,0,0,0,1.26.695,1.257,1.257,0,0,0,1.87-.946,6.187,6.187,0,0,0,.189-1.717,15.208,15.208,0,0,1,.054-1.875,2.782,2.782,0,0,1,4.213-2.337c.692.324,1.312.8,1.973,1.193.736.438,1.467,1.116,2.38.638s.809-1.453.855-2.31c.036-.673-.02-1.352.047-2.021.255-2.521,2.2-3.6,4.443-2.441.81.417,1.539.988,2.333,1.441,1.556.889,2.495.406,2.644-1.37.064-.766.013-1.54.044-2.31a3.759,3.759,0,0,1,.747-2.293c.2-.25.443-.647.787-.479.394.189.738.763.515,1.077-.943,1.319-.493,2.8-.645,4.205C181.715,115.888,180.672,116.983,178.889,116.917Z" fill="#fc0"/>
        <path id="Path_121" data-name="Path 121" d="M181.315,96.139c-.041.112-.1.293-.173.469-.484,1.149-1,2.285-1.443,3.451-.228.6-.535.7-1.087.46-1.185-.523-2.373-1.036-3.575-1.519-.5-.2-.661-.436-.42-.97.531-1.181,1.021-2.38,1.5-3.582.213-.53.466-.755,1.071-.476,1.176.542,2.385,1.011,3.574,1.522C181.02,95.6,181.334,95.682,181.315,96.139Z" fill="#fc0"/>
        <path id="Path_122" data-name="Path 122" d="M168.939,133.953a3.428,3.428,0,1,1-.058,6.856,3.329,3.329,0,0,1-3.394-3.519A3.377,3.377,0,0,1,168.939,133.953Zm1.953,3.388a1.987,1.987,0,0,0-2.068-1.933,1.957,1.957,0,0,0-1.887,1.962,1.927,1.927,0,0,0,1.986,1.992A1.957,1.957,0,0,0,170.892,137.341Z" fill="#fc0"/>
      </g>
      <g id="Group_68" data-name="Group 68" transform="translate(202.447 215.196) rotate(-150)">
        <path id="Path_120-2" data-name="Path 120" d="M178.889,116.917a4.144,4.144,0,0,1-2.045-.776c-.655-.4-1.278-.868-1.958-1.222-1.368-.713-2.217-.234-2.383,1.315a13.876,13.876,0,0,0-.028,1.443,8.527,8.527,0,0,1-.191,2.008,2.711,2.711,0,0,1-3.854,2.048,11.627,11.627,0,0,1-1.876-1.069c-.844-.51-1.66-1.423-2.736-.883-1.1.553-.807,1.744-.825,2.727a10.809,10.809,0,0,1-.217,2.295,2.693,2.693,0,0,1-3.646,2.039,9.486,9.486,0,0,1-2.135-1.194,3.87,3.87,0,0,0-2.353-.973c-.422.029-.581-.277-.739-.575-.226-.427-.172-.735.372-.826a3.284,3.284,0,0,1,2.233.371c.585.333,1.139.72,1.716,1.067a8.522,8.522,0,0,0,1.26.695,1.257,1.257,0,0,0,1.87-.946,6.187,6.187,0,0,0,.189-1.717,15.208,15.208,0,0,1,.054-1.875,2.782,2.782,0,0,1,4.213-2.337c.692.324,1.312.8,1.973,1.193.736.438,1.467,1.116,2.38.638s.809-1.453.855-2.31c.036-.673-.02-1.352.047-2.021.255-2.521,2.2-3.6,4.443-2.441.81.417,1.539.988,2.333,1.441,1.556.889,2.495.406,2.644-1.37.064-.766.013-1.54.044-2.31a3.759,3.759,0,0,1,.747-2.293c.2-.25.443-.647.787-.479.394.189.738.763.515,1.077-.943,1.319-.493,2.8-.645,4.205C181.715,115.888,180.672,116.983,178.889,116.917Z" fill="#00ffc2"/>
        <path id="Path_121-2" data-name="Path 121" d="M181.315,96.139c-.041.112-.1.293-.173.469-.484,1.149-1,2.285-1.443,3.451-.228.6-.535.7-1.087.46-1.185-.523-2.373-1.036-3.575-1.519-.5-.2-.661-.436-.42-.97.531-1.181,1.021-2.38,1.5-3.582.213-.53.466-.755,1.071-.476,1.176.542,2.385,1.011,3.574,1.522C181.02,95.6,181.334,95.682,181.315,96.139Z" fill="#00ffc2"/>
        <path id="Path_122-2" data-name="Path 122" d="M168.939,133.953a3.428,3.428,0,1,1-.058,6.856,3.329,3.329,0,0,1-3.394-3.519A3.377,3.377,0,0,1,168.939,133.953Zm1.953,3.388a1.987,1.987,0,0,0-2.068-1.933,1.957,1.957,0,0,0-1.887,1.962,1.927,1.927,0,0,0,1.986,1.992A1.957,1.957,0,0,0,170.892,137.341Z" fill="#00ffc2"/>
      </g>
      <g id="Group_66" data-name="Group 66" transform="matrix(-0.966, -0.259, 0.259, -0.966, 573.549, 192.348)">
        <path id="Path_120-3" data-name="Path 120" d="M178.889,116.917a4.144,4.144,0,0,1-2.045-.776c-.655-.4-1.278-.868-1.958-1.222-1.368-.713-2.217-.234-2.383,1.315a13.876,13.876,0,0,0-.028,1.443,8.527,8.527,0,0,1-.191,2.008,2.711,2.711,0,0,1-3.854,2.048,11.627,11.627,0,0,1-1.876-1.069c-.844-.51-1.66-1.423-2.736-.883-1.1.553-.807,1.744-.825,2.727a10.809,10.809,0,0,1-.217,2.295,2.693,2.693,0,0,1-3.646,2.039,9.486,9.486,0,0,1-2.135-1.194,3.87,3.87,0,0,0-2.353-.973c-.422.029-.581-.277-.739-.575-.226-.427-.172-.735.372-.826a3.284,3.284,0,0,1,2.233.371c.585.333,1.139.72,1.716,1.067a8.522,8.522,0,0,0,1.26.695,1.257,1.257,0,0,0,1.87-.946,6.187,6.187,0,0,0,.189-1.717,15.208,15.208,0,0,1,.054-1.875,2.782,2.782,0,0,1,4.213-2.337c.692.324,1.312.8,1.973,1.193.736.438,1.467,1.116,2.38.638s.809-1.453.855-2.31c.036-.673-.02-1.352.047-2.021.255-2.521,2.2-3.6,4.443-2.441.81.417,1.539.988,2.333,1.441,1.556.889,2.495.406,2.644-1.37.064-.766.013-1.54.044-2.31a3.759,3.759,0,0,1,.747-2.293c.2-.25.443-.647.787-.479.394.189.738.763.515,1.077-.943,1.319-.493,2.8-.645,4.205C181.715,115.888,180.672,116.983,178.889,116.917Z" fill="#00ff19"/>
        <path id="Path_121-3" data-name="Path 121" d="M181.315,96.139c-.041.112-.1.293-.173.469-.484,1.149-1,2.285-1.443,3.451-.228.6-.535.7-1.087.46-1.185-.523-2.373-1.036-3.575-1.519-.5-.2-.661-.436-.42-.97.531-1.181,1.021-2.38,1.5-3.582.213-.53.466-.755,1.071-.476,1.176.542,2.385,1.011,3.574,1.522C181.02,95.6,181.334,95.682,181.315,96.139Z" fill="#00ff19"/>
        <path id="Path_122-3" data-name="Path 122" d="M168.939,133.953a3.428,3.428,0,1,1-.058,6.856,3.329,3.329,0,0,1-3.394-3.519A3.377,3.377,0,0,1,168.939,133.953Zm1.953,3.388a1.987,1.987,0,0,0-2.068-1.933,1.957,1.957,0,0,0-1.887,1.962,1.927,1.927,0,0,0,1.986,1.992A1.957,1.957,0,0,0,170.892,137.341Z" fill="#00ff19"/>
      </g>
      <path id="Path_123" data-name="Path 123" d="M207.144,398.23q1.169-.015,2.338-.036c.9-.012,1.747-.079,1.8,1.263.057,1.373-.684,1.642-1.8,1.66-1.462.022-2.923.063-4.381.132-.555.026-1.35-.192-1.587.368-.326.771.561,1.109,1,1.553,1.093,1.109,2.213,2.2,3.393,3.213.958.824.591,1.415-.079,2.17-.7.787-1.247.672-1.925.012q-2-1.931-4.055-3.792c-.769-.692-1.259-.391-1.259.571,0,1.753.075,3.5.142,5.255.038,1-.192,1.7-1.389,1.763s-1.512-.536-1.535-1.583c-.038-1.751-.132-3.5-.225-5.253-.018-.364,0-.8-.437-.976-.468-.192-.721.211-.97.468-1.286,1.328-2.561,2.67-3.806,4.041-.7.777-1.271.626-1.937-.055-.617-.63-.99-1.172-.229-1.962,1.352-1.4,2.67-2.836,3.984-4.276.186-.2.417-.516.381-.739-.077-.47-.532-.468-.919-.462-1.848.036-3.7.063-5.551.121-.9.026-1.466-.19-1.512-1.263s.255-1.648,1.425-1.656c1.85-.01,3.7-.087,5.551-.15.372-.012.85.008.9-.488.018-.221-.233-.51-.427-.7-1.33-1.288-2.656-2.581-4.025-3.824-.755-.684-1.024-1.231-.213-2.138.919-1.028,1.537-.763,2.354.075,1.225,1.251,2.533,2.423,3.828,3.606.259.237.526.678.976.4.379-.233.279-.672.271-1.045-.043-1.755-.055-3.508-.146-5.26-.057-1.065.287-1.63,1.421-1.733,1.241-.111,1.482.577,1.508,1.577q.064,2.776.178,5.549a1.143,1.143,0,0,0,.247.771c.4.33.717-.044.976-.316,1.279-1.338,2.563-2.67,3.8-4.043.7-.771,1.284-1.047,2.16-.182.8.781.877,1.348.057,2.164-1.383,1.371-2.688,2.82-3.99,4.268-.573.636-.358,1.043.492,1.045,1.071.006,2.142-.026,3.215-.044C207.144,398.281,207.144,398.257,207.144,398.23Z" transform="translate(159.916 -372.503)" fill="#fc0"/>
      <path id="Path_124" data-name="Path 124" d="M207.144,398.23q1.169-.015,2.338-.036c.9-.012,1.747-.079,1.8,1.263.057,1.373-.684,1.642-1.8,1.66-1.462.022-2.923.063-4.381.132-.555.026-1.35-.192-1.587.368-.326.771.561,1.109,1,1.553,1.093,1.109,2.213,2.2,3.393,3.213.958.824.591,1.415-.079,2.17-.7.787-1.247.672-1.925.012q-2-1.931-4.055-3.792c-.769-.692-1.259-.391-1.259.571,0,1.753.075,3.5.142,5.255.038,1-.192,1.7-1.389,1.763s-1.512-.536-1.535-1.583c-.038-1.751-.132-3.5-.225-5.253-.018-.364,0-.8-.437-.976-.468-.192-.721.211-.97.468-1.286,1.328-2.561,2.67-3.806,4.041-.7.777-1.271.626-1.937-.055-.617-.63-.99-1.172-.229-1.962,1.352-1.4,2.67-2.836,3.984-4.276.186-.2.417-.516.381-.739-.077-.47-.532-.468-.919-.462-1.848.036-3.7.063-5.551.121-.9.026-1.466-.19-1.512-1.263s.255-1.648,1.425-1.656c1.85-.01,3.7-.087,5.551-.15.372-.012.85.008.9-.488.018-.221-.233-.51-.427-.7-1.33-1.288-2.656-2.581-4.025-3.824-.755-.684-1.024-1.231-.213-2.138.919-1.028,1.537-.763,2.354.075,1.225,1.251,2.533,2.423,3.828,3.606.259.237.526.678.976.4.379-.233.279-.672.271-1.045-.043-1.755-.055-3.508-.146-5.26-.057-1.065.287-1.63,1.421-1.733,1.241-.111,1.482.577,1.508,1.577q.064,2.776.178,5.549a1.143,1.143,0,0,0,.247.771c.4.33.717-.044.976-.316,1.279-1.338,2.563-2.67,3.8-4.043.7-.771,1.284-1.047,2.16-.182.8.781.877,1.348.057,2.164-1.383,1.371-2.688,2.82-3.99,4.268-.573.636-.358,1.043.492,1.045,1.071.006,2.142-.026,3.215-.044C207.144,398.281,207.144,398.257,207.144,398.23Z" transform="translate(903.916 -373.503)" fill="#00e5ff"/>
      <g id="Ellipse_53" data-name="Ellipse 53" transform="translate(189 11)" fill="none" stroke="#fe0" stroke-width="2">
        <circle cx="14.5" cy="14.5" r="14.5" stroke="none"/>
        <circle cx="14.5" cy="14.5" r="13.5" fill="none"/>
      </g>
      <g id="Ellipse_59" data-name="Ellipse 59" transform="translate(267 27)" fill="none" stroke="#fe0" stroke-width="2">
        <circle cx="6.5" cy="6.5" r="6.5" stroke="none"/>
        <circle cx="6.5" cy="6.5" r="5.5" fill="none"/>
      </g>
    </g>
  </g>
</svg>
