<svg xmlns="http://www.w3.org/2000/svg" width="62.114" height="62.13" viewBox="0 0 62.114 62.13">
  <g id="green-tick" transform="translate(-620.863 -1430)">
    <g id="Rectangle_53" data-name="Rectangle 53" transform="translate(630 1430)" fill="#fff" stroke="#fff" stroke-width="5">
      <path d="M0,0H25A26,26,0,0,1,51,26V51a0,0,0,0,1,0,0H26A26,26,0,0,1,0,25V0A0,0,0,0,1,0,0Z" stroke="none"/>
      <path d="M5,2.5H25A23.5,23.5,0,0,1,48.5,26V46A2.5,2.5,0,0,1,46,48.5H26A23.5,23.5,0,0,1,2.5,25V5A2.5,2.5,0,0,1,5,2.5Z" fill="none"/>
    </g>
    <path id="Path_25" data-name="Path 25" d="M686.388,1565.5v6.091h14.2" transform="translate(-946.011 834.786) rotate(-45)" fill="none" stroke="#09cc10" stroke-linecap="round" stroke-width="5"/>
    <path id="Path_137" data-name="Path 137" d="M-1058.137,1540s9.336,1.046,9.241,9.533,2.546-9.533,2.546-9.533Z" transform="translate(1679 -109)" fill="#fff"/>
    <path id="Path_138" data-name="Path 138" d="M-1058.137,1540s9.336,1.046,9.241,9.533,2.546-9.533,2.546-9.533Z" transform="matrix(0.966, -0.259, 0.259, 0.966, 1292.037, -280.665)" fill="#fff"/>
  </g>
</svg>
