<svg xmlns="http://www.w3.org/2000/svg" width="120.651" height="18.406" viewBox="0 0 120.651 18.406">
  <g id="Rating" transform="translate(-607.166 -6512.278)">
    <g id="hm_icons_star" transform="translate(607.166 6512.278)">
      <path id="Path_107" data-name="Path 107" d="M.382,7.7a1.142,1.142,0,0,1,.985-.821l5.5-.411L8.923,1.457A.99.99,0,0,1,9.908.8a1.131,1.131,0,0,1,1.068.739l2.053,5.009,5.5.411a.909.909,0,0,1,.985.739,1.142,1.142,0,0,1-.328,1.232L15,12.461l1.314,5.256a1.179,1.179,0,0,1-.411,1.232,1.106,1.106,0,0,1-1.314.082L9.908,16.156,5.227,19.03a1.114,1.114,0,0,1-1.314-.082A1.053,1.053,0,0,1,3.5,17.717l1.314-5.256L.628,8.93A1.116,1.116,0,0,1,.382,7.7Z" transform="translate(-0.3 -0.8)" fill="#ffc432"/>
    </g>
    <g id="hm_icons_star-2" data-name="hm_icons_star" transform="translate(632.622 6512.278)">
      <path id="Path_107-2" data-name="Path 107" d="M.382,7.7a1.142,1.142,0,0,1,.985-.821l5.5-.411L8.923,1.457A.99.99,0,0,1,9.908.8a1.131,1.131,0,0,1,1.068.739l2.053,5.009,5.5.411a.909.909,0,0,1,.985.739,1.142,1.142,0,0,1-.328,1.232L15,12.461l1.314,5.256a1.179,1.179,0,0,1-.411,1.232,1.106,1.106,0,0,1-1.314.082L9.908,16.156,5.227,19.03a1.114,1.114,0,0,1-1.314-.082A1.053,1.053,0,0,1,3.5,17.717l1.314-5.256L.628,8.93A1.116,1.116,0,0,1,.382,7.7Z" transform="translate(-0.3 -0.8)" fill="#ffc432"/>
    </g>
    <g id="hm_icons_star-3" data-name="hm_icons_star" transform="translate(658.079 6512.278)">
      <path id="Path_107-3" data-name="Path 107" d="M.382,7.7a1.142,1.142,0,0,1,.985-.821l5.5-.411L8.923,1.457A.99.99,0,0,1,9.908.8a1.131,1.131,0,0,1,1.068.739l2.053,5.009,5.5.411a.909.909,0,0,1,.985.739,1.142,1.142,0,0,1-.328,1.232L15,12.461l1.314,5.256a1.179,1.179,0,0,1-.411,1.232,1.106,1.106,0,0,1-1.314.082L9.908,16.156,5.227,19.03a1.114,1.114,0,0,1-1.314-.082A1.053,1.053,0,0,1,3.5,17.717l1.314-5.256L.628,8.93A1.116,1.116,0,0,1,.382,7.7Z" transform="translate(-0.3 -0.8)" fill="#ffc432"/>
    </g>
    <g id="hm_icons_star-4" data-name="hm_icons_star" transform="translate(683.536 6512.278)">
      <path id="Path_107-4" data-name="Path 107" d="M.382,7.7a1.142,1.142,0,0,1,.985-.821l5.5-.411L8.923,1.457A.99.99,0,0,1,9.908.8a1.131,1.131,0,0,1,1.068.739l2.053,5.009,5.5.411a.909.909,0,0,1,.985.739,1.142,1.142,0,0,1-.328,1.232L15,12.461l1.314,5.256a1.179,1.179,0,0,1-.411,1.232,1.106,1.106,0,0,1-1.314.082L9.908,16.156,5.227,19.03a1.114,1.114,0,0,1-1.314-.082A1.053,1.053,0,0,1,3.5,17.717l1.314-5.256L.628,8.93A1.116,1.116,0,0,1,.382,7.7Z" transform="translate(-0.3 -0.8)" fill="#ffc432"/>
      <path id="Path_108" data-name="Path 108" d="M.382,7.7a1.142,1.142,0,0,1,.985-.821l5.5-.411L8.923,1.457A.99.99,0,0,1,9.908.8a1.131,1.131,0,0,1,1.068.739l2.053,5.009,5.5.411a.909.909,0,0,1,.985.739,1.142,1.142,0,0,1-.328,1.232L15,12.461l1.314,5.256a1.179,1.179,0,0,1-.411,1.232,1.106,1.106,0,0,1-1.314.082L9.908,16.156,5.227,19.03a1.114,1.114,0,0,1-1.314-.082A1.053,1.053,0,0,1,3.5,17.717l1.314-5.256L.628,8.93A1.116,1.116,0,0,1,.382,7.7Z" transform="translate(24.7 -0.8)" fill="#ffc432"/>
    </g>
  </g>
</svg>
