<svg xmlns="http://www.w3.org/2000/svg" xmlns:xlink="http://www.w3.org/1999/xlink" width="553" height="362" viewBox="0 0 553 362">
  <defs>
    <clipPath id="clip-path">
      <rect width="188" height="194" fill="none"/>
    </clipPath>
  </defs>
  <g id="views_pattern" data-name="views+pattern" transform="translate(-674 -3783)">
    <g id="Illustration">
      <circle id="Ellipse_39" data-name="Ellipse 39" cx="91.5" cy="91.5" r="91.5" transform="translate(731 3955)" fill="#00e5ff"/>
      <circle id="Ellipse_55" data-name="Ellipse 55" cx="40" cy="40" r="40" transform="translate(674 3905)" fill="#ff014e"/>
      <circle id="Ellipse_56" data-name="Ellipse 56" cx="18.5" cy="18.5" r="18.5" transform="translate(674 4081)" fill="#ffc432"/>
      <path id="Path_47" data-name="Path 47" d="M0,0,19,2V6L0,4Z" transform="translate(814 4021)" fill="#edeefe"/>
      <path id="Path_48" data-name="Path 48" d="M0,0,9.5,1V3L0,2Z" transform="translate(814 4028)" fill="#edeefe"/>
      <rect id="Rectangle_82" data-name="Rectangle 82" width="81" height="131" rx="13" transform="translate(782 4014)" fill="#fff"/>
      <circle id="Ellipse_41" data-name="Ellipse 41" cx="8.5" cy="8.5" r="8.5" transform="translate(794 4035)" fill="#474dff"/>
      <rect id="Rectangle_83" data-name="Rectangle 83" width="26" height="4" rx="2" transform="translate(819 4039)" fill="#474dff"/>
      <rect id="Rectangle_84" data-name="Rectangle 84" width="18" height="4" rx="2" transform="translate(819 4045)" fill="#474dff"/>
      <g id="Group_74" data-name="Group 74">
        <rect id="Rectangle_85" data-name="Rectangle 85" width="20" height="20" rx="5" transform="translate(791 4063)" fill="#767bf2" opacity="0.1"/>
        <rect id="Rectangle_90" data-name="Rectangle 90" width="20" height="20" rx="5" transform="translate(791 4086)" fill="#767bf2" opacity="0.1"/>
        <rect id="Rectangle_91" data-name="Rectangle 91" width="20" height="20" rx="5" transform="translate(791 4109)" fill="#767bf2" opacity="0.1"/>
        <rect id="Rectangle_86" data-name="Rectangle 86" width="20" height="20" rx="5" transform="translate(814 4063)" fill="#767bf2" opacity="0.1"/>
        <rect id="Rectangle_89" data-name="Rectangle 89" width="20" height="20" rx="5" transform="translate(814 4086)" fill="#767bf2" opacity="0.1"/>
        <rect id="Rectangle_92" data-name="Rectangle 92" width="20" height="20" rx="5" transform="translate(814 4109)" fill="#767bf2" opacity="0.1"/>
        <rect id="Rectangle_87" data-name="Rectangle 87" width="20" height="20" rx="5" transform="translate(837 4063)" fill="#767bf2" opacity="0.1"/>
        <rect id="Rectangle_88" data-name="Rectangle 88" width="20" height="20" rx="5" transform="translate(837 4086)" fill="#767bf2" opacity="0.1"/>
        <rect id="Rectangle_93" data-name="Rectangle 93" width="20" height="20" rx="5" transform="translate(837 4109)" fill="#767bf2" opacity="0.1"/>
      </g>
      <g id="Group_17" data-name="Group 17">
        <g id="ic_remove_red_eye_48px" transform="translate(880.352 4007.649)">
          <path id="Path_45" data-name="Path 45" d="M40.648,9A41.554,41.554,0,0,0,2,35.351a41.518,41.518,0,0,0,77.3,0A41.536,41.536,0,0,0,40.648,9Zm0,43.919A17.568,17.568,0,1,1,58.216,35.351,17.574,17.574,0,0,1,40.648,52.919Zm0-28.108a10.54,10.54,0,1,0,10.541,10.54A10.549,10.549,0,0,0,40.648,24.811Z" fill="#fff"/>
        </g>
        <g id="Ellipse_40" data-name="Ellipse 40" transform="translate(910 4032)" fill="#ff014e" stroke="#fff" stroke-width="5">
          <circle cx="11" cy="11" r="11" stroke="none"/>
          <circle cx="11" cy="11" r="8.5" fill="none"/>
        </g>
      </g>
      <g id="Group_72" data-name="Group 72" transform="translate(-58.352 -71.421)">
        <g id="ic_remove_red_eye_48px-2" data-name="ic_remove_red_eye_48px" transform="translate(882.352 4016.649)">
          <path id="Path_45-2" data-name="Path 45" d="M31,9A31.18,31.18,0,0,0,2,28.773a31.153,31.153,0,0,0,58,0A31.166,31.166,0,0,0,31,9Zm0,32.955A13.182,13.182,0,1,1,44.182,28.773,13.187,13.187,0,0,1,31,41.955Zm0-21.091a7.909,7.909,0,1,0,7.909,7.909A7.915,7.915,0,0,0,31,20.864Z" transform="translate(-2 -9)" fill="#fff"/>
        </g>
        <g id="Ellipse_40-2" data-name="Ellipse 40" transform="translate(903.352 4028.421)" fill="#ff014e" stroke="#fff" stroke-width="5">
          <circle cx="8" cy="8" r="8" stroke="none"/>
          <circle cx="8" cy="8" r="5.5" fill="none"/>
        </g>
      </g>
      <g id="Group_73" data-name="Group 73" transform="translate(-168.352 11.351)">
        <g id="ic_remove_red_eye_48px-3" data-name="ic_remove_red_eye_48px" transform="translate(882.352 4016.649)">
          <path id="Path_45-3" data-name="Path 45" d="M18.7,9A17.955,17.955,0,0,0,2,20.386a17.94,17.94,0,0,0,33.4,0A17.947,17.947,0,0,0,18.7,9Zm0,18.977a7.591,7.591,0,1,1,7.591-7.591A7.594,7.594,0,0,1,18.7,27.977Zm0-12.145a4.555,4.555,0,1,0,4.555,4.555A4.558,4.558,0,0,0,18.7,15.832Z" transform="translate(-2 -9)" fill="#fff"/>
        </g>
        <g id="Ellipse_40-3" data-name="Ellipse 40" transform="translate(894.352 4023.649)" fill="#ff014e" stroke="#fff" stroke-width="5">
          <circle cx="4.5" cy="4.5" r="4.5" stroke="none"/>
          <circle cx="4.5" cy="4.5" r="2" fill="none"/>
        </g>
      </g>
    </g>
    <g id="Pattern" transform="translate(1039 3783)" opacity="0.1" clip-path="url(#clip-path)">
      <g transform="translate(-147 -2619)">
        <circle id="Ellipse_42" data-name="Ellipse 42" cx="4.5" cy="4.5" r="4.5" transform="translate(147 2619)" fill="#eff0fe"/>
      </g>
      <g transform="translate(-118 -2619)">
        <circle id="Ellipse_42-2" data-name="Ellipse 42" cx="4.5" cy="4.5" r="4.5" transform="translate(147 2619)" fill="#eff0fe"/>
      </g>
      <g transform="translate(-89 -2619)">
        <circle id="Ellipse_42-3" data-name="Ellipse 42" cx="4.5" cy="4.5" r="4.5" transform="translate(147 2619)" fill="#eff0fe"/>
      </g>
      <g transform="translate(-60 -2619)">
        <circle id="Ellipse_42-4" data-name="Ellipse 42" cx="4.5" cy="4.5" r="4.5" transform="translate(147 2619)" fill="#eff0fe"/>
      </g>
      <g transform="translate(-31 -2619)">
        <circle id="Ellipse_42-5" data-name="Ellipse 42" cx="4.5" cy="4.5" r="4.5" transform="translate(147 2619)" fill="#eff0fe"/>
      </g>
      <g transform="translate(-2 -2619)">
        <circle id="Ellipse_42-6" data-name="Ellipse 42" cx="4.5" cy="4.5" r="4.5" transform="translate(147 2619)" fill="#eff0fe"/>
      </g>
      <g transform="translate(27 -2619)">
        <circle id="Ellipse_42-7" data-name="Ellipse 42" cx="4.5" cy="4.5" r="4.5" transform="translate(147 2619)" fill="#eff0fe"/>
      </g>
      <g transform="translate(-147 -2590)">
        <circle id="Ellipse_42-8" data-name="Ellipse 42" cx="4.5" cy="4.5" r="4.5" transform="translate(147 2619)" fill="#eff0fe"/>
      </g>
      <g transform="translate(-118 -2590)">
        <circle id="Ellipse_42-9" data-name="Ellipse 42" cx="4.5" cy="4.5" r="4.5" transform="translate(147 2619)" fill="#eff0fe"/>
      </g>
      <g transform="translate(-89 -2590)">
        <circle id="Ellipse_42-10" data-name="Ellipse 42" cx="4.5" cy="4.5" r="4.5" transform="translate(147 2619)" fill="#eff0fe"/>
      </g>
      <g transform="translate(-60 -2590)">
        <circle id="Ellipse_42-11" data-name="Ellipse 42" cx="4.5" cy="4.5" r="4.5" transform="translate(147 2619)" fill="#eff0fe"/>
      </g>
      <g transform="translate(-31 -2590)">
        <circle id="Ellipse_42-12" data-name="Ellipse 42" cx="4.5" cy="4.5" r="4.5" transform="translate(147 2619)" fill="#eff0fe"/>
      </g>
      <g transform="translate(-2 -2590)">
        <circle id="Ellipse_42-13" data-name="Ellipse 42" cx="4.5" cy="4.5" r="4.5" transform="translate(147 2619)" fill="#eff0fe"/>
      </g>
      <g transform="translate(27 -2590)">
        <circle id="Ellipse_42-14" data-name="Ellipse 42" cx="4.5" cy="4.5" r="4.5" transform="translate(147 2619)" fill="#eff0fe"/>
      </g>
      <g transform="translate(-147 -2561)">
        <circle id="Ellipse_42-15" data-name="Ellipse 42" cx="4.5" cy="4.5" r="4.5" transform="translate(147 2619)" fill="#eff0fe"/>
      </g>
      <g transform="translate(-118 -2561)">
        <circle id="Ellipse_42-16" data-name="Ellipse 42" cx="4.5" cy="4.5" r="4.5" transform="translate(147 2619)" fill="#eff0fe"/>
      </g>
      <g transform="translate(-89 -2561)">
        <circle id="Ellipse_42-17" data-name="Ellipse 42" cx="4.5" cy="4.5" r="4.5" transform="translate(147 2619)" fill="#eff0fe"/>
      </g>
      <g transform="translate(-60 -2561)">
        <circle id="Ellipse_42-18" data-name="Ellipse 42" cx="4.5" cy="4.5" r="4.5" transform="translate(147 2619)" fill="#eff0fe"/>
      </g>
      <g transform="translate(-31 -2561)">
        <circle id="Ellipse_42-19" data-name="Ellipse 42" cx="4.5" cy="4.5" r="4.5" transform="translate(147 2619)" fill="#eff0fe"/>
      </g>
      <g transform="translate(-2 -2561)">
        <circle id="Ellipse_42-20" data-name="Ellipse 42" cx="4.5" cy="4.5" r="4.5" transform="translate(147 2619)" fill="#eff0fe"/>
      </g>
      <g transform="translate(27 -2561)">
        <circle id="Ellipse_42-21" data-name="Ellipse 42" cx="4.5" cy="4.5" r="4.5" transform="translate(147 2619)" fill="#eff0fe"/>
      </g>
      <g transform="translate(-147 -2532)">
        <circle id="Ellipse_42-22" data-name="Ellipse 42" cx="4.5" cy="4.5" r="4.5" transform="translate(147 2619)" fill="#eff0fe"/>
      </g>
      <g transform="translate(-118 -2532)">
        <circle id="Ellipse_42-23" data-name="Ellipse 42" cx="4.5" cy="4.5" r="4.5" transform="translate(147 2619)" fill="#eff0fe"/>
      </g>
      <g transform="translate(-89 -2532)">
        <circle id="Ellipse_42-24" data-name="Ellipse 42" cx="4.5" cy="4.5" r="4.5" transform="translate(147 2619)" fill="#eff0fe"/>
      </g>
      <g transform="translate(-60 -2532)">
        <circle id="Ellipse_42-25" data-name="Ellipse 42" cx="4.5" cy="4.5" r="4.5" transform="translate(147 2619)" fill="#eff0fe"/>
      </g>
      <g transform="translate(-31 -2532)">
        <circle id="Ellipse_42-26" data-name="Ellipse 42" cx="4.5" cy="4.5" r="4.5" transform="translate(147 2619)" fill="#eff0fe"/>
      </g>
      <g transform="translate(-2 -2532)">
        <circle id="Ellipse_42-27" data-name="Ellipse 42" cx="4.5" cy="4.5" r="4.5" transform="translate(147 2619)" fill="#eff0fe"/>
      </g>
      <g transform="translate(27 -2532)">
        <circle id="Ellipse_42-28" data-name="Ellipse 42" cx="4.5" cy="4.5" r="4.5" transform="translate(147 2619)" fill="#eff0fe"/>
      </g>
      <g transform="translate(-147 -2503)">
        <circle id="Ellipse_42-29" data-name="Ellipse 42" cx="4.5" cy="4.5" r="4.5" transform="translate(147 2619)" fill="#eff0fe"/>
      </g>
      <g transform="translate(-118 -2503)">
        <circle id="Ellipse_42-30" data-name="Ellipse 42" cx="4.5" cy="4.5" r="4.5" transform="translate(147 2619)" fill="#eff0fe"/>
      </g>
      <g transform="translate(-89 -2503)">
        <circle id="Ellipse_42-31" data-name="Ellipse 42" cx="4.5" cy="4.5" r="4.5" transform="translate(147 2619)" fill="#eff0fe"/>
      </g>
      <g transform="translate(-60 -2503)">
        <circle id="Ellipse_42-32" data-name="Ellipse 42" cx="4.5" cy="4.5" r="4.5" transform="translate(147 2619)" fill="#eff0fe"/>
      </g>
      <g transform="translate(-31 -2503)">
        <circle id="Ellipse_42-33" data-name="Ellipse 42" cx="4.5" cy="4.5" r="4.5" transform="translate(147 2619)" fill="#eff0fe"/>
      </g>
      <g transform="translate(-2 -2503)">
        <circle id="Ellipse_42-34" data-name="Ellipse 42" cx="4.5" cy="4.5" r="4.5" transform="translate(147 2619)" fill="#eff0fe"/>
      </g>
      <g transform="translate(27 -2503)">
        <circle id="Ellipse_42-35" data-name="Ellipse 42" cx="4.5" cy="4.5" r="4.5" transform="translate(147 2619)" fill="#eff0fe"/>
      </g>
      <g transform="translate(-147 -2474)">
        <circle id="Ellipse_42-36" data-name="Ellipse 42" cx="4.5" cy="4.5" r="4.5" transform="translate(147 2619)" fill="#eff0fe"/>
      </g>
      <g transform="translate(-118 -2474)">
        <circle id="Ellipse_42-37" data-name="Ellipse 42" cx="4.5" cy="4.5" r="4.5" transform="translate(147 2619)" fill="#eff0fe"/>
      </g>
      <g transform="translate(-89 -2474)">
        <circle id="Ellipse_42-38" data-name="Ellipse 42" cx="4.5" cy="4.5" r="4.5" transform="translate(147 2619)" fill="#eff0fe"/>
      </g>
      <g transform="translate(-60 -2474)">
        <circle id="Ellipse_42-39" data-name="Ellipse 42" cx="4.5" cy="4.5" r="4.5" transform="translate(147 2619)" fill="#eff0fe"/>
      </g>
      <g transform="translate(-31 -2474)">
        <circle id="Ellipse_42-40" data-name="Ellipse 42" cx="4.5" cy="4.5" r="4.5" transform="translate(147 2619)" fill="#eff0fe"/>
      </g>
      <g transform="translate(-2 -2474)">
        <circle id="Ellipse_42-41" data-name="Ellipse 42" cx="4.5" cy="4.5" r="4.5" transform="translate(147 2619)" fill="#eff0fe"/>
      </g>
      <g transform="translate(27 -2474)">
        <circle id="Ellipse_42-42" data-name="Ellipse 42" cx="4.5" cy="4.5" r="4.5" transform="translate(147 2619)" fill="#eff0fe"/>
      </g>
      <g transform="translate(-147 -2445)">
        <circle id="Ellipse_42-43" data-name="Ellipse 42" cx="4.5" cy="4.5" r="4.5" transform="translate(147 2619)" fill="#eff0fe"/>
      </g>
      <g transform="translate(-118 -2445)">
        <circle id="Ellipse_42-44" data-name="Ellipse 42" cx="4.5" cy="4.5" r="4.5" transform="translate(147 2619)" fill="#eff0fe"/>
      </g>
      <g transform="translate(-89 -2445)">
        <circle id="Ellipse_42-45" data-name="Ellipse 42" cx="4.5" cy="4.5" r="4.5" transform="translate(147 2619)" fill="#eff0fe"/>
      </g>
      <g transform="translate(-60 -2445)">
        <circle id="Ellipse_42-46" data-name="Ellipse 42" cx="4.5" cy="4.5" r="4.5" transform="translate(147 2619)" fill="#eff0fe"/>
      </g>
      <g transform="translate(-31 -2445)">
        <circle id="Ellipse_42-47" data-name="Ellipse 42" cx="4.5" cy="4.5" r="4.5" transform="translate(147 2619)" fill="#eff0fe"/>
      </g>
      <g transform="translate(-2 -2445)">
        <circle id="Ellipse_42-48" data-name="Ellipse 42" cx="4.5" cy="4.5" r="4.5" transform="translate(147 2619)" fill="#eff0fe"/>
      </g>
      <g transform="translate(27 -2445)">
        <circle id="Ellipse_42-49" data-name="Ellipse 42" cx="4.5" cy="4.5" r="4.5" transform="translate(147 2619)" fill="#eff0fe"/>
      </g>
    </g>
  </g>
</svg>
